<?xml version="1.0" encoding="UTF-8" standalone="no"?>
<!-- Created with Inkscape (http://www.inkscape.org/) -->

<svg
   width="210mm"
   height="297mm"
   viewBox="0 0 210 297"
   version="1.1"
   id="svg666"
   inkscape:version="1.1.2 (0a00cf5339, 2022-02-04)"
   sodipodi:docname="complex_preprocessing.svg"
   xmlns:inkscape="http://www.inkscape.org/namespaces/inkscape"
   xmlns:sodipodi="http://sodipodi.sourceforge.net/DTD/sodipodi-0.dtd"
   xmlns:xlink="http://www.w3.org/1999/xlink"
   xmlns="http://www.w3.org/2000/svg"
   xmlns:svg="http://www.w3.org/2000/svg">
  <sodipodi:namedview
     id="namedview668"
     pagecolor="#ffffff"
     bordercolor="#666666"
     borderopacity="1.0"
     inkscape:pageshadow="2"
     inkscape:pageopacity="0.0"
     inkscape:pagecheckerboard="0"
     inkscape:document-units="mm"
     showgrid="false"
     inkscape:zoom="0.77771465"
     inkscape:cx="106.08004"
     inkscape:cy="561.25984"
     inkscape:window-width="3840"
     inkscape:window-height="2096"
     inkscape:window-x="0"
     inkscape:window-y="27"
     inkscape:window-maximized="1"
     inkscape:current-layer="layer1" />
  <defs
     id="defs663">
    <filter
       id="shadowFilter-g25be2c141bf_0_31.1"
       filterUnits="userSpaceOnUse">
      <feGaussianBlur
         in="SourceAlpha"
         stdDeviation="2.0"
         result="blur"
         id="feGaussianBlur892" />
      <feComponentTransfer
         in="blur"
         color-interpolation-filters="sRGB"
         id="feComponentTransfer902">
        <feFuncR
           type="linear"
           slope="0"
           intercept="0.0"
           id="feFuncR894" />
        <feFuncG
           type="linear"
           slope="0"
           intercept="0.0"
           id="feFuncG896" />
        <feFuncB
           type="linear"
           slope="0"
           intercept="0.0"
           id="feFuncB898" />
        <feFuncA
           type="linear"
           slope="0.5"
           intercept="0"
           id="feFuncA900" />
      </feComponentTransfer>
    </filter>
    <clipPath
       clipPathUnits="userSpaceOnUse"
       id="clipPath1104">
      <rect
         style="opacity:0.3;stroke-width:0.999999"
         id="rect1106"
         width="599.46741"
         height="694.50525"
         x="2188.8945"
         y="1845.7982" />
    </clipPath>
  </defs>
  <g
     inkscape:label="Layer 1"
     inkscape:groupmode="layer"
     id="layer1">
    <g
       style="fill:none;stroke:none;stroke-linecap:square;stroke-miterlimit:10"
       id="g998"
       transform="matrix(0.26458333,0,0,0.26458333,-408.16099,-548.66105)"
       clip-path="url(#clipPath1104)"
       inkscape:export-filename="/home/sebi/mardi/presentations/23-07-31/complex_preprocessing.png"
       inkscape:export-xdpi="96"
       inkscape:export-ydpi="96">
      <g
         clip-path="url(#g25be2c141bf_0_31.0)"
         id="g922">
        <path
           fill="#ffffff"
           d="M 0,0 H 3178.5828 V 4493.8584 H 0 Z"
           fill-rule="evenodd"
           id="path818" />
        <path
           fill="#000000"
           fill-opacity="0"
           d="M 108.3542,650.5326 H 3070.2438 V 2443.887 H 108.35419 Z"
           fill-rule="evenodd"
           id="path820" />
        <path
           fill="#000000"
           fill-opacity="0"
           d="M 108.35129,2476.1653 H 3070.2409 v 692.5039 H 108.35129 Z"
           fill-rule="evenodd"
           id="path822" />
        <path
           fill="#f3f3f3"
           fill-opacity="0.4727"
           d="m 2213.8635,2141.2126 v 0 c 0,-25.8401 20.9475,-46.7874 46.7874,-46.7874 h 461.4174 c 12.4087,0 24.3094,4.9292 33.0835,13.7037 8.7744,8.7744 13.7039,20.6748 13.7039,33.0837 v 331.8425 c 0,25.8399 -20.9475,46.7874 -46.7874,46.7874 h -461.4174 c -25.8399,0 -46.7874,-20.9475 -46.7874,-46.7874 z"
           fill-rule="evenodd"
           id="path824" />
        <path
           stroke="#595959"
           stroke-width="1"
           stroke-linejoin="round"
           stroke-linecap="butt"
           d="m 2213.8635,2141.2126 v 0 c 0,-25.8401 20.9475,-46.7874 46.7874,-46.7874 h 461.4174 c 12.4087,0 24.3094,4.9292 33.0835,13.7037 8.7744,8.7744 13.7039,20.6748 13.7039,33.0837 v 331.8425 c 0,25.8399 -20.9475,46.7874 -46.7874,46.7874 h -461.4174 c -25.8399,0 -46.7874,-20.9475 -46.7874,-46.7874 z"
           fill-rule="evenodd"
           id="path826" />
        <path
           fill="#eeeeee"
           d="m 2348.382,2432.4277 v 0 c 0,13.1985 64.0127,23.8977 142.9763,23.8977 78.9636,0 142.9763,-10.6992 142.9763,-23.8977 v 47.7954 c 0,13.1983 -64.0127,23.8977 -142.9763,23.8977 -78.9636,0 -142.9763,-10.6994 -142.9763,-23.8977 z"
           fill-rule="evenodd"
           id="path828" />
        <path
           fill="#f4f4f4"
           d="m 2348.382,2432.4277 v 0 c 0,-13.1982 64.0127,-23.8975 142.9763,-23.8975 78.9636,0 142.9763,10.6993 142.9763,23.8975 v 0 c 0,13.1985 -64.0127,23.8977 -142.9763,23.8977 -78.9636,0 -142.9763,-10.6992 -142.9763,-23.8977 z"
           fill-rule="evenodd"
           id="path830" />
        <path
           fill="#000000"
           fill-opacity="0"
           d="m 2634.3347,2432.4277 v 0 c 0,13.1985 -64.0127,23.8977 -142.9763,23.8977 -78.9636,0 -142.9763,-10.6992 -142.9763,-23.8977 v 0 c 0,-13.1982 64.0127,-23.8975 142.9763,-23.8975 78.9636,0 142.9763,10.6993 142.9763,23.8975 v 47.7954 c 0,13.1983 -64.0127,23.8977 -142.9763,23.8977 -78.9636,0 -142.9763,-10.6994 -142.9763,-23.8977 v -47.7954"
           fill-rule="evenodd"
           id="path832" />
        <path
           stroke="#595959"
           stroke-width="1"
           stroke-linejoin="round"
           stroke-linecap="butt"
           d="m 2634.3347,2432.4277 v 0 c 0,13.1985 -64.0127,23.8977 -142.9763,23.8977 -78.9636,0 -142.9763,-10.6992 -142.9763,-23.8977 v 0 c 0,-13.1982 64.0127,-23.8975 142.9763,-23.8975 78.9636,0 142.9763,10.6993 142.9763,23.8975 v 47.7954 c 0,13.1983 -64.0127,23.8977 -142.9763,23.8977 -78.9636,0 -142.9763,-10.6994 -142.9763,-23.8977 v -47.7954"
           fill-rule="evenodd"
           id="path834" />
        <path
           fill="#000000"
           d="m 2391.7112,2494.9504 v -30.4844 h 6.4531 v 2.4219 h -3.5312 v 25.6406 h 3.5312 v 2.4219 z m 9.8845,-6.625 v -15 h -2.5781 v -2.2812 h 2.5781 v -1.8438 q 0,-1.7344 0.3125,-2.5781 0.4219,-1.1406 1.4844,-1.8438 1.0781,-0.7187 3,-0.7187 1.2344,0 2.7344,0.2969 l -0.4532,2.5468 q -0.9062,-0.1562 -1.7187,-0.1562 -1.3281,0 -1.8906,0.5781 -0.5469,0.5625 -0.5469,2.125 v 1.5938 h 3.3594 v 2.2812 h -3.3594 v 15 z m 20.4004,-5.5625 3.0156,0.375 q -0.7031,2.6563 -2.6406,4.125 -1.9375,1.4531 -4.9531,1.4531 -3.7969,0 -6.0156,-2.3281 -2.2188,-2.3437 -2.2188,-6.5625 0,-4.3594 2.25,-6.7656 2.25,-2.4063 5.8281,-2.4063 3.4688,0 5.6563,2.3594 2.2031,2.3594 2.2031,6.6406 0,0.2657 -0.016,0.7813 h -12.8906 q 0.1562,2.8437 1.6093,4.3594 1.4532,1.5156 3.6094,1.5156 1.6094,0 2.75,-0.8438 1.1406,-0.8437 1.8125,-2.7031 z m -9.625,-4.7344 h 9.6563 q -0.2032,-2.1875 -1.1094,-3.2812 -1.4063,-1.6875 -3.625,-1.6875 -2.0156,0 -3.3906,1.3594 -1.375,1.3437 -1.5313,3.6093 z m 27.5979,8.1719 q -1.625,1.375 -3.125,1.9531 -1.5,0.5625 -3.2344,0.5625 -2.8437,0 -4.375,-1.3906 -1.5312,-1.3906 -1.5312,-3.5625 0,-1.2656 0.5781,-2.3125 0.5781,-1.0469 1.5156,-1.6719 0.9375,-0.6406 2.1094,-0.9687 0.8594,-0.2344 2.5938,-0.4375 3.5468,-0.4219 5.2343,-1.0156 0.016,-0.6094 0.016,-0.7657 0,-1.7812 -0.8282,-2.5156 -1.125,-1 -3.3437,-1 -2.0625,0 -3.0469,0.7344 -0.9844,0.7187 -1.4531,2.5469 l -2.875,-0.3907 q 0.3906,-1.8281 1.2812,-2.9531 0.9063,-1.1406 2.5938,-1.75 1.7031,-0.6094 3.9219,-0.6094 2.2187,0 3.5937,0.5313 1.3906,0.5156 2.0313,1.3125 0.6562,0.7812 0.9218,1.9844 0.1407,0.75 0.1407,2.7031 v 3.9062 q 0,4.0782 0.1875,5.1563 0.1875,1.0781 0.75,2.0781 h -3.0625 q -0.4532,-0.9062 -0.5938,-2.125 z m -0.2344,-6.5469 q -1.5937,0.6563 -4.7812,1.1094 -1.8125,0.25 -2.5625,0.5781 -0.75,0.3282 -1.1563,0.9532 -0.4062,0.625 -0.4062,1.3906 0,1.1719 0.8906,1.9531 0.8906,0.7813 2.5938,0.7813 1.6875,0 3,-0.7344 1.3281,-0.75 1.9531,-2.0313 0.4687,-0.9843 0.4687,-2.9218 z m 13.8951,6.0469 0.4218,2.5938 q -1.2343,0.2656 -2.2187,0.2656 -1.5938,0 -2.4688,-0.5 -0.875,-0.5156 -1.2343,-1.3281 -0.3594,-0.8282 -0.3594,-3.4688 v -9.9375 h -2.1563 v -2.2812 h 2.1563 v -4.2813 l 2.9062,-1.75 v 6.0313 h 2.9532 v 2.2812 h -2.9532 v 10.1094 q 0,1.25 0.1563,1.6094 0.1562,0.3593 0.5,0.5781 0.3594,0.2031 1.0156,0.2031 0.4844,0 1.2813,-0.125 z m 14.1814,2.625 v -2.5312 q -2.0157,2.9218 -5.4688,2.9218 -1.5312,0 -2.8594,-0.5781 -1.3281,-0.5937 -1.9687,-1.4844 -0.6406,-0.8906 -0.9063,-2.1718 -0.1875,-0.8594 -0.1875,-2.7344 v -10.7031 h 2.9375 v 9.5781 q 0,2.2969 0.1719,3.0937 0.2813,1.1563 1.1719,1.8282 0.9062,0.6562 2.2187,0.6562 1.3125,0 2.4688,-0.6719 1.1562,-0.6875 1.6406,-1.8437 0.4844,-1.1719 0.4844,-3.375 v -9.2656 h 2.9219 v 17.2812 z m 7.1918,0 v -17.2812 h 2.625 v 2.625 q 1.0157,-1.8438 1.8594,-2.4219 0.8594,-0.5938 1.8906,-0.5938 1.4844,0 3,0.9375 l -1,2.7188 q -1.0781,-0.625 -2.1562,-0.625 -0.9531,0 -1.7188,0.5781 -0.7656,0.5781 -1.0937,1.5938 -0.4844,1.5625 -0.4844,3.4218 v 9.0469 z m 22.9578,-5.5625 3.0156,0.375 q -0.7031,2.6563 -2.6406,4.125 -1.9375,1.4531 -4.9531,1.4531 -3.7969,0 -6.0156,-2.3281 -2.2188,-2.3437 -2.2188,-6.5625 0,-4.3594 2.25,-6.7656 2.25,-2.4063 5.8281,-2.4063 3.4688,0 5.6563,2.3594 2.2031,2.3594 2.2031,6.6406 0,0.2657 -0.016,0.7813 h -12.8906 q 0.1562,2.8437 1.6093,4.3594 1.4532,1.5156 3.6094,1.5156 1.6094,0 2.75,-0.8438 1.1406,-0.8437 1.8125,-2.7031 z m -9.625,-4.7344 h 9.6563 q -0.2032,-2.1875 -1.1094,-3.2812 -1.4063,-1.6875 -3.625,-1.6875 -2.0156,0 -3.3906,1.3594 -1.375,1.3437 -1.5313,3.6093 z m 27.645,10.2969 v -2.5312 q -2.0156,2.9218 -5.4687,2.9218 -1.5313,0 -2.8594,-0.5781 -1.3281,-0.5937 -1.9687,-1.4844 -0.6407,-0.8906 -0.9063,-2.1718 -0.1875,-0.8594 -0.1875,-2.7344 v -10.7031 h 2.9375 v 9.5781 q 0,2.2969 0.1719,3.0937 0.2812,1.1563 1.1719,1.8282 0.9062,0.6562 2.2187,0.6562 1.3125,0 2.4688,-0.6719 1.1562,-0.6875 1.6406,-1.8437 0.4844,-1.1719 0.4844,-3.375 v -9.2656 h 2.9218 v 17.2812 z m 7.2229,0 v -17.2812 h 2.625 v 2.4531 q 1.9063,-2.8438 5.5,-2.8438 1.5625,0 2.875,0.5625 1.3125,0.5625 1.9532,1.4688 0.6562,0.9062 0.9218,2.1719 0.1563,0.8125 0.1563,2.8437 v 10.625 h -2.9219 v -10.5156 q 0,-1.7813 -0.3437,-2.6719 -0.3438,-0.8906 -1.2188,-1.4219 -0.8594,-0.5312 -2.0312,-0.5312 -1.875,0 -3.2344,1.1875 -1.3594,1.1875 -1.3594,4.5156 v 9.4375 z m 18.5513,-20.4844 v -3.375 h 2.9219 v 3.375 z m 0,20.4844 v -17.2812 h 2.9219 v 17.2812 z m 6.2949,-8.6406 q 0,-4.7969 2.6719,-7.1094 2.2187,-1.9219 5.4219,-1.9219 3.5781,0 5.8281,2.3438 2.2656,2.3281 2.2656,6.4375 0,3.3437 -1,5.2656 -1,1.9063 -2.9219,2.9688 -1.9062,1.0468 -4.1718,1.0468 -3.625,0 -5.8594,-2.3281 -2.2344,-2.3281 -2.2344,-6.7031 z m 3.0156,0 q 0,3.3125 1.4375,4.9687 1.4532,1.6563 3.6407,1.6563 2.1875,0 3.625,-1.6563 1.4531,-1.6718 1.4531,-5.0625 0,-3.2031 -1.4531,-4.8593 -1.4532,-1.6563 -3.625,-1.6563 -2.1875,0 -3.6407,1.6406 -1.4375,1.6407 -1.4375,4.9688 z m 16.6138,8.6406 v -17.2812 h 2.625 v 2.4531 q 1.9063,-2.8438 5.5,-2.8438 1.5625,0 2.875,0.5625 1.3125,0.5625 1.9531,1.4688 0.6563,0.9062 0.9219,2.1719 0.1563,0.8125 0.1563,2.8437 v 10.625 h -2.9219 v -10.5156 q 0,-1.7813 -0.3438,-2.6719 -0.3437,-0.8906 -1.2187,-1.4219 -0.8594,-0.5312 -2.0313,-0.5312 -1.875,0 -3.2343,1.1875 -1.3594,1.1875 -1.3594,4.5156 v 9.4375 z m 23.426,6.625 h -6.4531 v -2.4219 h 3.5313 v -25.6406 h -3.5313 v -2.4219 h 6.4531 z"
           fill-rule="nonzero"
           id="path836" />
        <path
           fill="#a4c2f4"
           d="m 2600.3542,2341.601 v 47.9526 h 20.9844 l -41.9685,41.9685 -41.9685,-41.9685 h 20.9841 v -47.9526 z"
           fill-rule="evenodd"
           id="path838" />
        <path
           stroke="#595959"
           stroke-width="1"
           stroke-linejoin="round"
           stroke-linecap="butt"
           d="m 2600.3542,2341.601 v 47.9526 h 20.9844 l -41.9685,41.9685 -41.9685,-41.9685 h 20.9841 v -47.9526 z"
           fill-rule="evenodd"
           id="path840" />
        <path
           fill="#a4c2f4"
           d="m 2424.3542,2341.601 v 47.9526 h 20.9844 l -41.9685,41.9685 -41.9685,-41.9685 h 20.9841 v -47.9526 z"
           fill-rule="evenodd"
           id="path842" />
        <path
           stroke="#595959"
           stroke-width="1"
           stroke-linejoin="round"
           stroke-linecap="butt"
           d="m 2424.3542,2341.601 v 47.9526 h 20.9844 l -41.9685,41.9685 -41.9685,-41.9685 h 20.9841 v -47.9526 z"
           fill-rule="evenodd"
           id="path844" />
        <path
           fill="#eeeeee"
           d="m 2542.9788,2295.7139 v 0 c 0,13.1982 48.5225,23.8977 108.3779,23.8977 59.8555,0 108.378,-10.6995 108.378,-23.8977 v 47.7954 c 0,13.1983 -48.5225,23.8975 -108.378,23.8975 -59.8554,0 -108.3779,-10.6992 -108.3779,-23.8975 z"
           fill-rule="evenodd"
           id="path846" />
        <path
           fill="#f4f4f4"
           d="m 2542.9788,2295.7139 v 0 c 0,-13.1982 48.5225,-23.8977 108.3779,-23.8977 59.8555,0 108.378,10.6995 108.378,23.8977 v 0 c 0,13.1982 -48.5225,23.8977 -108.378,23.8977 -59.8554,0 -108.3779,-10.6995 -108.3779,-23.8977 z"
           fill-rule="evenodd"
           id="path848" />
        <path
           fill="#000000"
           fill-opacity="0"
           d="m 2759.7346,2295.7139 v 0 c 0,13.1982 -48.5225,23.8977 -108.3779,23.8977 -59.8555,0 -108.378,-10.6995 -108.378,-23.8977 v 0 c 0,-13.1982 48.5225,-23.8977 108.378,-23.8977 59.8554,0 108.3779,10.6995 108.3779,23.8977 v 47.7954 c 0,13.1983 -48.5225,23.8975 -108.3779,23.8975 -59.8555,0 -108.378,-10.6992 -108.378,-23.8975 v -47.7954"
           fill-rule="evenodd"
           id="path850" />
        <path
           stroke="#595959"
           stroke-width="1"
           stroke-linejoin="round"
           stroke-linecap="butt"
           d="m 2759.7346,2295.7139 v 0 c 0,13.1982 -48.5225,23.8977 -108.3779,23.8977 -59.8555,0 -108.378,-10.6995 -108.378,-23.8977 v 0 c 0,-13.1982 48.5225,-23.8977 108.378,-23.8977 59.8554,0 108.3779,10.6995 108.3779,23.8977 v 47.7954 c 0,13.1983 -48.5225,23.8975 -108.3779,23.8975 -59.8555,0 -108.378,-10.6992 -108.378,-23.8975 v -47.7954"
           fill-rule="evenodd"
           id="path852" />
        <path
           fill="#000000"
           d="m 2559.122,2345.6853 v -30.4844 h 6.4531 v 2.4219 h -3.5312 v 25.6406 h 3.5312 v 2.4219 z m 9.0564,0.031 -0.3281,-2.75 q 0.9687,0.2656 1.6875,0.2656 0.9687,0 1.5468,-0.3281 0.5938,-0.3282 0.9688,-0.9219 0.2812,-0.4375 0.8906,-2.1719 0.094,-0.25 0.2656,-0.7187 l -6.5625,-17.3125 h 3.1563 l 3.6094,10 q 0.6875,1.9062 1.25,4.0156 0.5,-2.0156 1.2031,-3.9375 l 3.6875,-10.0781 h 2.9375 l -6.5781,17.5781 q -1.0625,2.8437 -1.6407,3.9219 -0.7812,1.4375 -1.7968,2.1093 -1,0.6875 -2.4063,0.6875 -0.8437,0 -1.8906,-0.3593 z m 28.6328,-12.2188 3.0156,0.375 q -0.7031,2.6563 -2.6406,4.125 -1.9375,1.4531 -4.9531,1.4531 -3.7969,0 -6.0156,-2.3281 -2.2188,-2.3437 -2.2188,-6.5625 0,-4.3594 2.25,-6.7656 2.25,-2.4063 5.8281,-2.4063 3.4688,0 5.6563,2.3594 2.2031,2.3594 2.2031,6.6406 0,0.2657 -0.016,0.7813 H 2587.03 q 0.1562,2.8437 1.6093,4.3594 1.4532,1.5156 3.6094,1.5156 1.6094,0 2.75,-0.8438 1.1406,-0.8437 1.8125,-2.7031 z m -9.625,-4.7344 h 9.6563 q -0.2032,-2.1875 -1.1094,-3.2812 -1.4063,-1.6875 -3.625,-1.6875 -2.0156,0 -3.3906,1.3594 -1.375,1.3437 -1.5313,3.6093 z m 15.2388,1.6563 q 0,-4.7969 2.6719,-7.1094 2.2187,-1.9219 5.4218,-1.9219 3.5782,0 5.8282,2.3438 2.2656,2.3281 2.2656,6.4375 0,3.3437 -1,5.2656 -1,1.9063 -2.9219,2.9688 -1.9062,1.0468 -4.1719,1.0468 -3.625,0 -5.8593,-2.3281 -2.2344,-2.3281 -2.2344,-6.7031 z m 3.0156,0 q 0,3.3125 1.4375,4.9687 1.4531,1.6563 3.6406,1.6563 2.1875,0 3.625,-1.6563 1.4532,-1.6718 1.4532,-5.0625 0,-3.2031 -1.4532,-4.8593 -1.4531,-1.6563 -3.625,-1.6563 -2.1875,0 -3.6406,1.6406 -1.4375,1.6407 -1.4375,4.9688 z m 16.5979,-11.8125 v -3.4063 h 2.9219 v 3.4063 z m -3.7187,27.1562 0.5625,-2.4843 q 0.875,0.2187 1.375,0.2187 0.8906,0 1.3281,-0.5937 0.4531,-0.5938 0.4531,-2.9688 v -18.1562 h 2.9219 v 18.2187 q 0,3.2031 -0.8281,4.4531 -1.0625,1.625 -3.5157,1.625 -1.1875,0 -2.2968,-0.3125 z m 10.0451,-15.3437 q 0,-4.7969 2.6719,-7.1094 2.2187,-1.9219 5.4219,-1.9219 3.5781,0 5.8281,2.3438 2.2656,2.3281 2.2656,6.4375 0,3.3437 -1,5.2656 -1,1.9063 -2.9219,2.9688 -1.9062,1.0468 -4.1718,1.0468 -3.625,0 -5.8594,-2.3281 -2.2344,-2.3281 -2.2344,-6.7031 z m 3.0156,0 q 0,3.3125 1.4375,4.9687 1.4532,1.6563 3.6407,1.6563 2.1875,0 3.625,-1.6563 1.4531,-1.6718 1.4531,-5.0625 0,-3.2031 -1.4531,-4.8593 -1.4532,-1.6563 -3.625,-1.6563 -2.1875,0 -3.6407,1.6406 -1.4375,1.6407 -1.4375,4.9688 z m 16.6136,8.6406 v -23.8594 h 2.9218 v 8.5625 q 2.0469,-2.375 5.1719,-2.375 1.9219,0 3.3281,0.7657 1.4219,0.75 2.0313,2.0937 0.625,1.3281 0.625,3.8594 v 10.9531 h -2.9375 v -10.9531 q 0,-2.2031 -0.9531,-3.2031 -0.9532,-1 -2.6875,-1 -1.3125,0 -2.4532,0.6875 -1.1406,0.6718 -1.6406,1.8281 -0.4844,1.1562 -0.4844,3.1875 v 9.4531 z m 18.5356,0 v -17.2812 h 2.625 v 2.4531 q 1.9063,-2.8438 5.5,-2.8438 1.5625,0 2.875,0.5625 1.3125,0.5625 1.9531,1.4688 0.6563,0.9062 0.9219,2.1719 0.1563,0.8125 0.1563,2.8437 v 10.625 h -2.9219 v -10.5156 q 0,-1.7813 -0.3438,-2.6719 -0.3437,-0.8906 -1.2187,-1.4219 -0.8594,-0.5312 -2.0313,-0.5312 -1.875,0 -3.2343,1.1875 -1.3594,1.1875 -1.3594,4.5156 v 9.4375 z m 17.3635,-5.1562 2.8907,-0.4532 q 0.25,1.7344 1.3593,2.6719 1.1094,0.9219 3.1094,0.9219 2.0313,0 3,-0.8125 0.9844,-0.8281 0.9844,-1.9375 0,-1 -0.875,-1.5625 -0.5938,-0.3906 -2.9844,-1 -3.2344,-0.8125 -4.4844,-1.4063 -1.2343,-0.5937 -1.875,-1.6406 -0.6406,-1.0469 -0.6406,-2.3125 0,-1.1562 0.5313,-2.1406 0.5312,-0.9844 1.4375,-1.6406 0.6875,-0.5 1.8593,-0.8438 1.1875,-0.3594 2.5313,-0.3594 2.0312,0 3.5625,0.5938 1.5469,0.5781 2.2812,1.5781 0.7344,1 1.0157,2.6719 l -2.875,0.3906 q -0.1875,-1.3281 -1.125,-2.0781 -0.9375,-0.75 -2.6407,-0.75 -2.0312,0 -2.8906,0.6719 -0.8594,0.6562 -0.8594,1.5625 0,0.5625 0.3594,1.0156 0.3594,0.4844 1.125,0.7812 0.4375,0.1719 2.5781,0.75 3.1094,0.8282 4.3438,1.3594 1.2344,0.5313 1.9219,1.5469 0.7031,1 0.7031,2.5 0,1.4687 -0.8594,2.7656 -0.8437,1.2813 -2.4531,2 -1.6094,0.7031 -3.6563,0.7031 -3.3593,0 -5.125,-1.3906 -1.7656,-1.4062 -2.25,-4.1562 z m 16.7422,-3.4844 q 0,-4.7969 2.6719,-7.1094 2.2188,-1.9219 5.4219,-1.9219 3.5781,0 5.8281,2.3438 2.2656,2.3281 2.2656,6.4375 0,3.3437 -1,5.2656 -1,1.9063 -2.9218,2.9688 -1.9063,1.0468 -4.1719,1.0468 -3.625,0 -5.8594,-2.3281 -2.2344,-2.3281 -2.2344,-6.7031 z m 3.0157,0 q 0,3.3125 1.4375,4.9687 1.4531,1.6563 3.6406,1.6563 2.1875,0 3.625,-1.6563 1.4531,-1.6718 1.4531,-5.0625 0,-3.2031 -1.4531,-4.8593 -1.4531,-1.6563 -3.625,-1.6563 -2.1875,0 -3.6406,1.6406 -1.4375,1.6407 -1.4375,4.9688 z m 16.6137,8.6406 v -17.2812 h 2.625 v 2.4531 q 1.9063,-2.8438 5.5,-2.8438 1.5625,0 2.875,0.5625 1.3125,0.5625 1.9531,1.4688 0.6563,0.9062 0.9219,2.1719 0.1563,0.8125 0.1563,2.8437 v 10.625 h -2.9219 v -10.5156 q 0,-1.7813 -0.3438,-2.6719 -0.3437,-0.8906 -1.2187,-1.4219 -0.8594,-0.5312 -2.0313,-0.5312 -1.875,0 -3.2343,1.1875 -1.3594,1.1875 -1.3594,4.5156 v 9.4375 z m 23.426,6.625 h -6.4531 v -2.4219 h 3.5313 v -25.6406 h -3.5313 v -2.4219 h 6.4531 z"
           fill-rule="nonzero"
           id="path854" />
        <path
           fill="#a4c2f4"
           d="m 2600.3542,2173.601 v 80.8662 h 20.9844 l -41.9685,41.9685 -41.9685,-41.9685 h 20.9841 v -80.8662 z"
           fill-rule="evenodd"
           id="path856" />
        <path
           stroke="#595959"
           stroke-width="1"
           stroke-linejoin="round"
           stroke-linecap="butt"
           d="m 2600.3542,2173.601 v 80.8662 h 20.9844 l -41.9685,41.9685 -41.9685,-41.9685 h 20.9841 v -80.8662 z"
           fill-rule="evenodd"
           id="path858" />
        <path
           fill="#eeeeee"
           d="m 2222.9788,2295.7139 v 0 c 0,13.1982 48.5225,23.8977 108.3779,23.8977 59.8555,0 108.378,-10.6995 108.378,-23.8977 v 47.7954 c 0,13.1983 -48.5225,23.8975 -108.378,23.8975 -59.8554,0 -108.3779,-10.6992 -108.3779,-23.8975 z"
           fill-rule="evenodd"
           id="path860" />
        <path
           fill="#f4f4f4"
           d="m 2222.9788,2295.7139 v 0 c 0,-13.1982 48.5225,-23.8977 108.3779,-23.8977 59.8555,0 108.378,10.6995 108.378,23.8977 v 0 c 0,13.1982 -48.5225,23.8977 -108.378,23.8977 -59.8554,0 -108.3779,-10.6995 -108.3779,-23.8977 z"
           fill-rule="evenodd"
           id="path862" />
        <path
           fill="#000000"
           fill-opacity="0"
           d="m 2439.7346,2295.7139 v 0 c 0,13.1982 -48.5225,23.8977 -108.3779,23.8977 -59.8555,0 -108.378,-10.6995 -108.378,-23.8977 v 0 c 0,-13.1982 48.5225,-23.8977 108.378,-23.8977 59.8554,0 108.3779,10.6995 108.3779,23.8977 v 47.7954 c 0,13.1983 -48.5225,23.8975 -108.3779,23.8975 -59.8555,0 -108.378,-10.6992 -108.378,-23.8975 v -47.7954"
           fill-rule="evenodd"
           id="path864" />
        <path
           stroke="#595959"
           stroke-width="1"
           stroke-linejoin="round"
           stroke-linecap="butt"
           d="m 2439.7346,2295.7139 v 0 c 0,13.1982 -48.5225,23.8977 -108.3779,23.8977 -59.8555,0 -108.378,-10.6995 -108.378,-23.8977 v 0 c 0,-13.1982 48.5225,-23.8977 108.378,-23.8977 59.8554,0 108.3779,10.6995 108.3779,23.8977 v 47.7954 c 0,13.1983 -48.5225,23.8975 -108.3779,23.8975 -59.8555,0 -108.378,-10.6992 -108.378,-23.8975 v -47.7954"
           fill-rule="evenodd"
           id="path866" />
        <path
           fill="#000000"
           d="m 2297.495,2345.6853 v -30.4844 h 6.4531 v 2.4219 h -3.5312 v 25.6406 h 3.5312 v 2.4219 z m 9.197,0 v -23.9062 h 2.6563 v 2.25 q 0.9531,-1.3282 2.1406,-1.9844 1.1875,-0.6563 2.875,-0.6563 2.2187,0 3.9062,1.1407 1.6875,1.1406 2.5469,3.2187 0.875,2.0625 0.875,4.5469 0,2.6406 -0.9531,4.7656 -0.9531,2.125 -2.7656,3.2656 -1.8125,1.125 -3.8125,1.125 -1.4688,0 -2.6407,-0.6093 -1.1562,-0.625 -1.9062,-1.5782 v 8.4219 z m 2.6406,-15.1719 q 0,3.3438 1.3438,4.9375 1.3594,1.5938 3.2812,1.5938 1.9532,0 3.3438,-1.6563 1.3906,-1.6562 1.3906,-5.1093 0,-3.3125 -1.3594,-4.9532 -1.3593,-1.6406 -3.25,-1.6406 -1.8593,0 -3.3125,1.75 -1.4375,1.75 -1.4375,5.0781 z m 27.1607,2.2188 2.8906,0.375 q -0.4687,2.9687 -2.4219,4.6562 -1.9375,1.6875 -4.7812,1.6875 -3.5469,0 -5.7031,-2.3125 -2.1563,-2.3281 -2.1563,-6.6562 0,-2.7969 0.9219,-4.8906 0.9375,-2.1094 2.8281,-3.1563 1.9063,-1.0469 4.125,-1.0469 2.8281,0 4.6094,1.4219 1.7969,1.4219 2.2969,4.0469 l -2.8438,0.4375 q -0.4062,-1.7344 -1.4531,-2.6094 -1.0313,-0.8906 -2.4844,-0.8906 -2.2187,0 -3.6094,1.5937 -1.375,1.5782 -1.375,5.0157 0,3.4843 1.3282,5.0625 1.3437,1.5781 3.4843,1.5781 1.7344,0 2.8907,-1.0625 1.1562,-1.0625 1.4531,-3.25 z m 16.6641,4.2031 q -1.625,1.375 -3.125,1.9531 -1.5,0.5625 -3.2344,0.5625 -2.8438,0 -4.375,-1.3906 -1.5313,-1.3906 -1.5313,-3.5625 0,-1.2656 0.5782,-2.3125 0.5781,-1.0469 1.5156,-1.6719 0.9375,-0.6406 2.1094,-0.9687 0.8593,-0.2344 2.5937,-0.4375 3.5469,-0.4219 5.2344,-1.0156 0.016,-0.6094 0.016,-0.7657 0,-1.7812 -0.8281,-2.5156 -1.125,-1 -3.3438,-1 -2.0625,0 -3.0468,0.7344 -0.9844,0.7187 -1.4532,2.5469 l -2.875,-0.3907 q 0.3907,-1.8281 1.2813,-2.9531 0.9062,-1.1406 2.5937,-1.75 1.7032,-0.6094 3.9219,-0.6094 2.2188,0 3.5938,0.5313 1.3906,0.5156 2.0312,1.3125 0.6563,0.7812 0.9219,1.9844 0.1406,0.75 0.1406,2.7031 v 3.9062 q 0,4.0782 0.1875,5.1563 0.1875,1.0781 0.75,2.0781 h -3.0625 q -0.4531,-0.9062 -0.5937,-2.125 z m -0.2344,-6.5469 q -1.5938,0.6563 -4.7813,1.1094 -1.8125,0.25 -2.5625,0.5781 -0.75,0.3282 -1.1562,0.9532 -0.4063,0.625 -0.4063,1.3906 0,1.1719 0.8907,1.9531 0.8906,0.7813 2.5937,0.7813 1.6875,0 3,-0.7344 1.3281,-0.75 1.9531,-2.0313 0.4688,-0.9843 0.4688,-2.9218 z m 12.3948,15.2969 h -6.4532 v -2.4219 h 3.5313 v -25.6406 h -3.5313 v -2.4219 h 6.4532 z"
           fill-rule="nonzero"
           id="path868" />
        <path
           fill="#a4c2f4"
           d="m 2424.3542,2173.601 v 80.8662 h 20.9844 l -41.9685,41.9685 -41.9685,-41.9685 h 20.9841 v -80.8662 z"
           fill-rule="evenodd"
           id="path870" />
        <path
           stroke="#595959"
           stroke-width="1"
           stroke-linejoin="round"
           stroke-linecap="butt"
           d="m 2424.3542,2173.601 v 80.8662 h 20.9844 l -41.9685,41.9685 -41.9685,-41.9685 h 20.9841 v -80.8662 z"
           fill-rule="evenodd"
           id="path872" />
        <path
           fill="#eeeeee"
           d="m 2382.9788,2135 v 0 c 0,13.1982 48.5225,23.8977 108.3779,23.8977 59.8555,0 108.378,-10.6995 108.378,-23.8977 v 47.7952 c 0,13.1985 -48.5225,23.8977 -108.378,23.8977 -59.8554,0 -108.3779,-10.6992 -108.3779,-23.8977 z"
           fill-rule="evenodd"
           id="path874" />
        <path
           fill="#f4f4f4"
           d="m 2382.9788,2135 v 0 c 0,-13.1982 48.5225,-23.8977 108.3779,-23.8977 59.8555,0 108.378,10.6995 108.378,23.8977 v 0 c 0,13.1982 -48.5225,23.8977 -108.378,23.8977 -59.8554,0 -108.3779,-10.6995 -108.3779,-23.8977 z"
           fill-rule="evenodd"
           id="path876" />
        <path
           fill="#000000"
           fill-opacity="0"
           d="m 2599.7346,2135 v 0 c 0,13.1982 -48.5225,23.8977 -108.3779,23.8977 -59.8555,0 -108.378,-10.6995 -108.378,-23.8977 v 0 c 0,-13.1982 48.5225,-23.8977 108.378,-23.8977 59.8554,0 108.3779,10.6995 108.3779,23.8977 v 47.7952 c 0,13.1985 -48.5225,23.8977 -108.3779,23.8977 -59.8555,0 -108.378,-10.6992 -108.378,-23.8977 V 2135"
           fill-rule="evenodd"
           id="path878" />
        <path
           stroke="#595959"
           stroke-width="1"
           stroke-linejoin="round"
           stroke-linecap="butt"
           d="m 2599.7346,2135 v 0 c 0,13.1982 -48.5225,23.8977 -108.3779,23.8977 -59.8555,0 -108.378,-10.6995 -108.378,-23.8977 v 0 c 0,-13.1982 48.5225,-23.8977 108.378,-23.8977 59.8554,0 108.3779,10.6995 108.3779,23.8977 v 47.7952 c 0,13.1985 -48.5225,23.8977 -108.3779,23.8977 -59.8555,0 -108.378,-10.6992 -108.378,-23.8977 V 2135"
           fill-rule="evenodd"
           id="path880" />
        <path
           fill="#000000"
           d="m 2429.692,2184.9714 v -30.4844 h 6.4531 v 2.4219 h -3.5312 v 25.6406 h 3.5312 v 2.4219 z m 21.0251,-12.1875 3.0157,0.375 q -0.7032,2.6563 -2.6407,4.125 -1.9375,1.4531 -4.9531,1.4531 -3.7969,0 -6.0156,-2.3281 -2.2188,-2.3437 -2.2188,-6.5625 0,-4.3594 2.25,-6.7656 2.25,-2.4063 5.8282,-2.4063 3.4687,0 5.6562,2.3594 2.2031,2.3594 2.2031,6.6406 0,0.2657 -0.016,0.7813 h -12.8906 q 0.1562,2.8437 1.6094,4.3594 1.4531,1.5156 3.6093,1.5156 1.6094,0 2.75,-0.8438 1.1407,-0.8437 1.8125,-2.7031 z m -9.625,-4.7344 h 9.6563 q -0.2031,-2.1875 -1.1094,-3.2812 -1.4062,-1.6875 -3.625,-1.6875 -2.0156,0 -3.3906,1.3594 -1.375,1.3437 -1.5313,3.6093 z m 16.3326,10.2969 v -17.2812 h 2.625 v 2.4531 q 1.9062,-2.8438 5.5,-2.8438 1.5625,0 2.875,0.5625 1.3125,0.5625 1.9531,1.4688 0.6562,0.9062 0.9219,2.1719 0.1562,0.8125 0.1562,2.8437 v 10.625 h -2.9219 v -10.5156 q 0,-1.7813 -0.3437,-2.6719 -0.3438,-0.8906 -1.2188,-1.4219 -0.8593,-0.5312 -2.0312,-0.5312 -1.875,0 -3.2344,1.1875 -1.3594,1.1875 -1.3594,4.5156 v 9.4375 z m 29.801,-6.3281 2.8906,0.375 q -0.4687,2.9687 -2.4219,4.6562 -1.9375,1.6875 -4.7812,1.6875 -3.5469,0 -5.7031,-2.3125 -2.1563,-2.3281 -2.1563,-6.6562 0,-2.7969 0.9219,-4.8906 0.9375,-2.1094 2.8281,-3.1563 1.9063,-1.0469 4.125,-1.0469 2.8281,0 4.6094,1.4219 1.7969,1.4219 2.2969,4.0469 l -2.8438,0.4375 q -0.4062,-1.7344 -1.4531,-2.6094 -1.0313,-0.8906 -2.4844,-0.8906 -2.2187,0 -3.6094,1.5937 -1.375,1.5782 -1.375,5.0157 0,3.4843 1.3282,5.0625 1.3437,1.5781 3.4843,1.5781 1.7344,0 2.8907,-1.0625 1.1562,-1.0625 1.4531,-3.25 z m 4.3047,-2.3125 q 0,-4.7969 2.6719,-7.1094 2.2187,-1.9219 5.4218,-1.9219 3.5782,0 5.8282,2.3438 2.2656,2.3281 2.2656,6.4375 0,3.3437 -1,5.2656 -1,1.9063 -2.9219,2.9688 -1.9062,1.0468 -4.1719,1.0468 -3.625,0 -5.8593,-2.3281 -2.2344,-2.3281 -2.2344,-6.7031 z m 3.0156,0 q 0,3.3125 1.4375,4.9687 1.4531,1.6563 3.6406,1.6563 2.1875,0 3.625,-1.6563 1.4532,-1.6718 1.4532,-5.0625 0,-3.2031 -1.4532,-4.8593 -1.4531,-1.6563 -3.625,-1.6563 -2.1875,0 -3.6406,1.6406 -1.4375,1.6407 -1.4375,4.9688 z m 27.8169,8.6406 v -2.1875 q -1.6406,2.5781 -4.8281,2.5781 -2.0625,0 -3.7969,-1.1406 -1.7344,-1.1406 -2.6875,-3.1719 -0.9531,-2.0468 -0.9531,-4.7031 0,-2.5937 0.8593,-4.6875 0.8594,-2.1094 2.5782,-3.2344 1.7343,-1.125 3.875,-1.125 1.5625,0 2.7812,0.6563 1.2188,0.6562 1.9844,1.7187 v -8.5625 h 2.9062 v 23.8594 z m -9.25,-8.625 q 0,3.3125 1.3906,4.9688 1.4063,1.6406 3.3125,1.6406 1.9063,0 3.25,-1.5625 1.3438,-1.5781 1.3438,-4.7969 0,-3.5469 -1.375,-5.2031 -1.3594,-1.6719 -3.3594,-1.6719 -1.9531,0 -3.2656,1.5938 -1.2969,1.5937 -1.2969,5.0312 z m 28.4104,3.0625 3.0156,0.375 q -0.7031,2.6563 -2.6406,4.125 -1.9375,1.4531 -4.9531,1.4531 -3.7969,0 -6.0157,-2.3281 -2.2187,-2.3437 -2.2187,-6.5625 0,-4.3594 2.25,-6.7656 2.25,-2.4063 5.8281,-2.4063 3.4688,0 5.6563,2.3594 2.2031,2.3594 2.2031,6.6406 0,0.2657 -0.016,0.7813 h -12.8907 q 0.1563,2.8437 1.6094,4.3594 1.4531,1.5156 3.6094,1.5156 1.6094,0 2.75,-0.8438 1.1406,-0.8437 1.8125,-2.7031 z m -9.625,-4.7344 h 9.6562 q -0.2031,-2.1875 -1.1093,-3.2812 -1.4063,-1.6875 -3.625,-1.6875 -2.0157,0 -3.3907,1.3594 -1.375,1.3437 -1.5312,3.6093 z m 21.2231,16.9219 h -6.4531 v -2.4219 h 3.5313 v -25.6406 h -3.5313 v -2.4219 h 6.4531 z"
           fill-rule="nonzero"
           id="path882" />
        <path
           fill="#a4c2f4"
           d="m 2512.3542,2068.8872 v 39.6377 h 20.9844 l -41.9685,39.6379 -41.9685,-39.6379 h 20.9841 v -39.6377 z"
           fill-rule="evenodd"
           id="path884" />
        <path
           stroke="#595959"
           stroke-width="1"
           stroke-linejoin="round"
           stroke-linecap="butt"
           d="m 2512.3542,2068.8872 v 39.6377 h 20.9844 l -41.9685,39.6379 -41.9685,-39.6379 h 20.9841 v -39.6377 z"
           fill-rule="evenodd"
           id="path886" />
        <g
           filter="url(#shadowFilter-g25be2c141bf_0_31.1)"
           id="g890">
          <use
             xlink:href="#g25be2c141bf_0_31.1"
             transform="translate(0,2)"
             id="use888"
             x="0"
             y="0"
             width="100%"
             height="100%" />
        </g>
        <defs
           id="defs905">
          <filter
             id="filter986"
             filterUnits="userSpaceOnUse">
            <feGaussianBlur
               in="SourceAlpha"
               stdDeviation="2.0"
               result="blur"
               id="feGaussianBlur974" />
            <feComponentTransfer
               in="blur"
               color-interpolation-filters="sRGB"
               id="feComponentTransfer984">
              <feFuncR
                 type="linear"
                 slope="0"
                 intercept="0.0"
                 id="feFuncR976" />
              <feFuncG
                 type="linear"
                 slope="0"
                 intercept="0.0"
                 id="feFuncG978" />
              <feFuncB
                 type="linear"
                 slope="0"
                 intercept="0.0"
                 id="feFuncB980" />
              <feFuncA
                 type="linear"
                 slope="0.5"
                 intercept="0"
                 id="feFuncA982" />
            </feComponentTransfer>
          </filter>
        </defs>
        <g
           id="g25be2c141bf_0_31.1">
          <path
             fill="#6d9eeb"
             d="m 2583.6653,1869.79 h -184.6025 v 173.2966 h 184.6025 z"
             fill-rule="evenodd"
             id="path907" />
          <path
             fill="#000000"
             fill-opacity="0"
             d="m 2560.59,1869.79 v 173.2966 m 23.0752,-151.6345 h -184.6025"
             fill-rule="evenodd"
             id="path909" />
          <path
             fill="#000000"
             fill-opacity="0"
             d="m 2583.6653,1869.79 h -184.6025 v 173.2966 h 184.6025 z"
             fill-rule="evenodd"
             id="path911" />
          <path
             stroke="#595959"
             stroke-width="3"
             stroke-linejoin="round"
             stroke-linecap="butt"
             d="m 2560.59,1869.79 v 173.2966 m 23.0752,-151.6345 h -184.6025"
             fill-rule="evenodd"
             id="path913" />
          <path
             stroke="#595959"
             stroke-width="3"
             stroke-linejoin="round"
             stroke-linecap="butt"
             d="m 2583.6653,1869.79 h -184.6025 v 173.2966 h 184.6025 z"
             fill-rule="evenodd"
             id="path915" />
        </g>
        <path
           fill="#000000"
           fill-opacity="0"
           d="m 2399.0508,1891.3806 h 184.5933 v 103.5275 h -184.5933 z"
           fill-rule="evenodd"
           id="path918" />
        <path
           fill="#000000"
           d="m 2460.9045,1973.1082 v -3.4844 q -2.625,4.1094 -7.7344,4.1094 -3.2968,0 -6.0781,-1.8125 -2.7656,-1.8281 -4.2969,-5.0938 -1.5156,-3.2812 -1.5156,-7.5156 0,-4.1406 1.375,-7.5156 1.375,-3.375 4.1406,-5.1719 2.7657,-1.7969 6.1719,-1.7969 2.5,0 4.4531,1.0625 1.9532,1.0469 3.1719,2.7344 v -13.6875 h 4.6719 v 38.1719 z m -14.8125,-13.7969 q 0,5.3125 2.2344,7.9375 2.25,2.625 5.2969,2.625 3.0625,0 5.2031,-2.5 2.1562,-2.5156 2.1562,-7.6719 0,-5.6875 -2.1875,-8.3437 -2.1875,-2.6563 -5.3906,-2.6563 -3.125,0 -5.2187,2.5625 -2.0938,2.5469 -2.0938,8.0469 z m 44.5806,10.3906 q -2.6094,2.2032 -5.0157,3.125 -2.4062,0.9063 -5.1718,0.9063 -4.5469,0 -7,-2.2188 -2.4532,-2.2343 -2.4532,-5.7031 0,-2.0312 0.9219,-3.7031 0.9375,-1.6875 2.4219,-2.7031 1.5,-1.0157 3.375,-1.5313 1.3906,-0.3594 4.1719,-0.7031 5.6718,-0.6719 8.3593,-1.6094 0.031,-0.9687 0.031,-1.2344 0,-2.8593 -1.3281,-4.0312 -1.7969,-1.5938 -5.3438,-1.5938 -3.3125,0 -4.8906,1.1719 -1.5625,1.1563 -2.3281,4.0938 l -4.5782,-0.625 q 0.625,-2.9375 2.0469,-4.75 1.4375,-1.8125 4.1406,-2.7813 2.7188,-0.9844 6.2813,-0.9844 3.5469,0 5.75,0.8438 2.2187,0.8281 3.2656,2.0937 1.0469,1.25 1.4531,3.1875 0.2344,1.1875 0.2344,4.3125 v 6.25 q 0,6.5469 0.2969,8.2813 0.3125,1.7187 1.1875,3.3125 h -4.8906 q -0.7344,-1.4531 -0.9375,-3.4063 z m -0.3907,-10.4687 q -2.5468,1.0312 -7.6562,1.7656 -2.8906,0.4219 -4.0938,0.9375 -1.1875,0.5156 -1.8437,1.5313 -0.6563,1 -0.6563,2.2187 0,1.875 1.4219,3.125 1.4219,1.25 4.1563,1.25 2.7031,0 4.8125,-1.1875 2.1093,-1.1875 3.1093,-3.2344 0.75,-1.5937 0.75,-4.6875 z m 22.2366,9.6875 0.6719,4.1406 q -1.9688,0.4063 -3.5313,0.4063 -2.5625,0 -3.9687,-0.7969 -1.4063,-0.8125 -1.9844,-2.125 -0.5625,-1.3125 -0.5625,-5.5313 v -15.9218 h -3.4375 v -3.6407 h 3.4375 v -6.8437 l 4.6563,-2.8125 v 9.6562 h 4.7187 v 3.6407 h -4.7187 v 16.1718 q 0,2.0157 0.25,2.5938 0.25,0.5625 0.8125,0.9062 0.5625,0.3282 1.5937,0.3282 0.7813,0 2.0625,-0.1719 z m 22.6287,0.7812 q -2.6094,2.2032 -5.0156,3.125 -2.4063,0.9063 -5.1719,0.9063 -4.5469,0 -7,-2.2188 -2.4531,-2.2343 -2.4531,-5.7031 0,-2.0312 0.9218,-3.7031 0.9375,-1.6875 2.4219,-2.7031 1.5,-1.0157 3.375,-1.5313 1.3906,-0.3594 4.1719,-0.7031 5.6719,-0.6719 8.3594,-1.6094 0.031,-0.9687 0.031,-1.2344 0,-2.8593 -1.3281,-4.0312 -1.7969,-1.5938 -5.3438,-1.5938 -3.3125,0 -4.8906,1.1719 -1.5625,1.1563 -2.3281,4.0938 l -4.5781,-0.625 q 0.625,-2.9375 2.0468,-4.75 1.4375,-1.8125 4.1407,-2.7813 2.7187,-0.9844 6.2812,-0.9844 3.5469,0 5.75,0.8438 2.2188,0.8281 3.2656,2.0937 1.0469,1.25 1.4532,3.1875 0.2343,1.1875 0.2343,4.3125 v 6.25 q 0,6.5469 0.2969,8.2813 0.3125,1.7187 1.1875,3.3125 h -4.8906 q -0.7344,-1.4531 -0.9375,-3.4063 z m -0.3906,-10.4687 q -2.5469,1.0312 -7.6563,1.7656 -2.8906,0.4219 -4.0937,0.9375 -1.1875,0.5156 -1.8438,1.5313 -0.6562,1 -0.6562,2.2187 0,1.875 1.4218,3.125 1.4219,1.25 4.1563,1.25 2.7031,0 4.8125,-1.1875 2.1094,-1.1875 3.1094,-3.2344 0.75,-1.5937 0.75,-4.6875 z"
           fill-rule="nonzero"
           id="path920" />
      </g>
    </g>
  </g>
</svg>
