<svg version="1.1" viewBox="0.0 0.0 3178.582677165354 4493.858267716535" fill="none" stroke="none" stroke-linecap="square" stroke-miterlimit="10" xmlns:xlink="http://www.w3.org/1999/xlink" xmlns="http://www.w3.org/2000/svg"><clipPath id="g25be2c141bf_0_49.0"><path d="m0 0l3178.5828 0l0 4493.8584l-3178.5828 0l0 -4493.8584z" clip-rule="nonzero"/></clipPath><g clip-path="url(#g25be2c141bf_0_49.0)"><path fill="#ffffff" d="m0 0l3178.5828 0l0 4493.8584l-3178.5828 0z" fill-rule="evenodd"/><path fill="#000000" fill-opacity="0.0" d="m108.354195 650.5326l2961.8896 0l0 1793.3544l-2961.8896 0z" fill-rule="evenodd"/><path fill="#000000" fill-opacity="0.0" d="m108.351295 2476.1653l2961.8896 0l0 692.5039l-2961.8896 0z" fill-rule="evenodd"/><path fill="#f9cb9c" d="m974.9787 2344.4277l0 0c0 13.198486 48.525757 23.897705 108.385315 23.897705c59.859497 0 108.385254 -10.699219 108.385254 -23.897705l0 47.79541c0 13.198242 -48.525757 23.897705 -108.385254 23.897705c-59.85956 0 -108.385315 -10.699463 -108.385315 -23.897705z" fill-rule="evenodd"/><path fill="#fbdfc3" d="m974.9787 2344.4277l0 0c0 -13.198242 48.525757 -23.89746 108.385315 -23.89746c59.859497 0 108.385254 10.699219 108.385254 23.89746l0 0c0 13.198486 -48.525757 23.897705 -108.385254 23.897705c-59.85956 0 -108.385315 -10.699219 -108.385315 -23.897705z" fill-rule="evenodd"/><path fill="#000000" fill-opacity="0.0" d="m1191.7493 2344.4277l0 0c0 13.198486 -48.525757 23.897705 -108.385254 23.897705c-59.85956 0 -108.385315 -10.699219 -108.385315 -23.897705l0 0c0 -13.198242 48.525757 -23.89746 108.385315 -23.89746c59.859497 0 108.385254 10.699219 108.385254 23.89746l0 47.79541c0 13.198242 -48.525757 23.897705 -108.385254 23.897705c-59.85956 0 -108.385315 -10.699463 -108.385315 -23.897705l0 -47.79541" fill-rule="evenodd"/><path stroke="#595959" stroke-width="1.0" stroke-linejoin="round" stroke-linecap="butt" d="m1191.7493 2344.4277l0 0c0 13.198486 -48.525757 23.897705 -108.385254 23.897705c-59.85956 0 -108.385315 -10.699219 -108.385315 -23.897705l0 0c0 -13.198242 48.525757 -23.89746 108.385315 -23.89746c59.859497 0 108.385254 10.699219 108.385254 23.89746l0 47.79541c0 13.198242 -48.525757 23.897705 -108.385254 23.897705c-59.85956 0 -108.385315 -10.699463 -108.385315 -23.897705l0 -47.79541" fill-rule="evenodd"/><path fill="#000000" d="m1020.7797 2394.3992l0 -30.484375l6.453064 0l0 2.421875l-3.531189 0l0 25.640625l3.531189 0l0 2.421875l-6.453064 0zm9.1189575 -6.625l0 -23.859375l2.9375 0l0 23.859375l-2.9375 0zm6.388794 -8.640625q0 -4.796875 2.671875 -7.109375q2.21875 -1.921875 5.421875 -1.921875q3.578125 0 5.828125 2.34375q2.265625 2.328125 2.265625 6.4375q0 3.34375 -1.0 5.265625q-1.0 1.90625 -2.921875 2.96875q-1.90625 1.046875 -4.171875 1.046875q-3.625 0 -5.859375 -2.328125q-2.234375 -2.328125 -2.234375 -6.703125zm3.015625 0q0 3.3125 1.4375 4.96875q1.453125 1.65625 3.640625 1.65625q2.1875 0 3.625 -1.65625q1.453125 -1.671875 1.453125 -5.0625q0 -3.203125 -1.453125 -4.859375q-1.453125 -1.65625 -3.625 -1.65625q-2.1875 0 -3.640625 1.640625q-1.4375 1.640625 -1.4375 4.96875zm16.066772 10.078125l2.84375 0.421875q0.1875 1.3125 1.0 1.921875q1.09375 0.8125 2.984375 0.8125q2.03125 0 3.125 -0.8125q1.109375 -0.8125 1.5 -2.28125q0.234375 -0.890625 0.21875 -3.765625q-1.921875 2.265625 -4.78125 2.265625q-3.5625 0 -5.515625 -2.5625q-1.953125 -2.578125 -1.953125 -6.171875q0 -2.484375 0.890625 -4.5625q0.890625 -2.09375 2.59375 -3.234375q1.703125 -1.140625 4.0 -1.140625q3.0625 0 5.046875 2.46875l0 -2.078125l2.703125 0l0 14.9375q0 4.03125 -0.828125 5.71875q-0.828125 1.6875 -2.609375 2.65625q-1.78125 0.984375 -4.375 0.984375q-3.09375 0 -5.0 -1.390625q-1.90625 -1.390625 -1.84375 -4.1875zm2.421875 -10.390625q0 3.40625 1.34375 4.96875q1.359375 1.5625 3.390625 1.5625q2.03125 0 3.390625 -1.546875q1.375 -1.5625 1.375 -4.890625q0 -3.171875 -1.421875 -4.78125q-1.40625 -1.609375 -3.390625 -1.609375q-1.953125 0 -3.328125 1.59375q-1.359375 1.578125 -1.359375 4.703125zm13.957397 15.578125l0 -2.125l19.40625 0l0 2.125l-19.40625 0zm21.207397 -6.625l0 -17.28125l2.625 0l0 2.625q1.015625 -1.84375 1.859375 -2.421875q0.859375 -0.59375 1.890625 -0.59375q1.484375 0 3.0 0.9375l-1.0 2.71875q-1.078125 -0.625 -2.15625 -0.625q-0.953125 0 -1.71875 0.578125q-0.765625 0.578125 -1.09375 1.59375q-0.484375 1.5625 -0.484375 3.421875l0 9.046875l-2.921875 0zm22.958008 -5.5625l3.015625 0.375q-0.703125 2.65625 -2.640625 4.125q-1.9375 1.453125 -4.953125 1.453125q-3.796875 0 -6.015625 -2.328125q-2.21875 -2.34375 -2.21875 -6.5625q0 -4.359375 2.25 -6.765625q2.25 -2.40625 5.828125 -2.40625q3.46875 0 5.65625 2.359375q2.203125 2.359375 2.203125 6.640625q0 0.265625 -0.015625 0.78125l-12.890625 0q0.15625 2.84375 1.609375 4.359375q1.453125 1.515625 3.609375 1.515625q1.609375 0 2.75 -0.84375q1.140625 -0.84375 1.8125 -2.703125zm-9.625 -4.734375l9.65625 0q-0.203125 -2.1875 -1.109375 -3.28125q-1.40625 -1.6875 -3.625 -1.6875q-2.015625 0 -3.390625 1.359375q-1.375 1.34375 -1.53125 3.609375zm15.785522 11.734375l2.84375 0.421875q0.1875 1.3125 1.0 1.921875q1.09375 0.8125 2.984375 0.8125q2.03125 0 3.125 -0.8125q1.109375 -0.8125 1.5 -2.28125q0.234375 -0.890625 0.21875 -3.765625q-1.921875 2.265625 -4.78125 2.265625q-3.5625 0 -5.515625 -2.5625q-1.953125 -2.578125 -1.953125 -6.171875q0 -2.484375 0.890625 -4.5625q0.890625 -2.09375 2.59375 -3.234375q1.703125 -1.140625 4.0 -1.140625q3.0625 0 5.046875 2.46875l0 -2.078125l2.703125 0l0 14.9375q0 4.03125 -0.828125 5.71875q-0.828125 1.6875 -2.609375 2.65625q-1.78125 0.984375 -4.375 0.984375q-3.09375 0 -5.0 -1.390625q-1.90625 -1.390625 -1.84375 -4.1875zm2.421875 -10.390625q0 3.40625 1.34375 4.96875q1.359375 1.5625 3.390625 1.5625q2.03125 0 3.390625 -1.546875q1.375 -1.5625 1.375 -4.890625q0 -3.171875 -1.421875 -4.78125q-1.40625 -1.609375 -3.390625 -1.609375q-1.953125 0 -3.328125 1.59375q-1.359375 1.578125 -1.359375 4.703125zm21.551147 15.578125l-6.453125 0l0 -2.421875l3.53125 0l0 -25.640625l-3.53125 0l0 -2.421875l6.453125 0l0 30.484375z" fill-rule="nonzero"/><path fill="#a4c2f4" d="m1104.3536 2278.315l0 39.637695l20.984863 0l-41.969727 39.63794l-41.96985 -39.63794l20.984863 0l0 -39.637695z" fill-rule="evenodd"/><path stroke="#595959" stroke-width="1.0" stroke-linejoin="round" stroke-linecap="butt" d="m1104.3536 2278.315l0 39.637695l20.984863 0l-41.969727 39.63794l-41.96985 -39.63794l20.984863 0l0 -39.637695z" fill-rule="evenodd"/><path fill="#eeeeee" d="m974.9787 2239.7139l0 0c0 13.198242 48.525757 23.897705 108.385315 23.897705c59.859497 0 108.385254 -10.699463 108.385254 -23.897705l0 47.79541c0 13.198242 -48.525757 23.89746 -108.385254 23.89746c-59.85956 0 -108.385315 -10.699219 -108.385315 -23.89746z" fill-rule="evenodd"/><path fill="#f4f4f4" d="m974.9787 2239.7139l0 0c0 -13.198242 48.525757 -23.897705 108.385315 -23.897705c59.859497 0 108.385254 10.699463 108.385254 23.897705l0 0c0 13.198242 -48.525757 23.897705 -108.385254 23.897705c-59.85956 0 -108.385315 -10.699463 -108.385315 -23.897705z" fill-rule="evenodd"/><path fill="#000000" fill-opacity="0.0" d="m1191.7493 2239.7139l0 0c0 13.198242 -48.525757 23.897705 -108.385254 23.897705c-59.85956 0 -108.385315 -10.699463 -108.385315 -23.897705l0 0c0 -13.198242 48.525757 -23.897705 108.385315 -23.897705c59.859497 0 108.385254 10.699463 108.385254 23.897705l0 47.79541c0 13.198242 -48.525757 23.89746 -108.385254 23.89746c-59.85956 0 -108.385315 -10.699219 -108.385315 -23.89746l0 -47.79541" fill-rule="evenodd"/><path stroke="#595959" stroke-width="1.0" stroke-linejoin="round" stroke-linecap="butt" d="m1191.7493 2239.7139l0 0c0 13.198242 -48.525757 23.897705 -108.385254 23.897705c-59.85956 0 -108.385315 -10.699463 -108.385315 -23.897705l0 0c0 -13.198242 48.525757 -23.897705 108.385315 -23.897705c59.859497 0 108.385254 10.699463 108.385254 23.897705l0 47.79541c0 13.198242 -48.525757 23.89746 -108.385254 23.89746c-59.85956 0 -108.385315 -10.699219 -108.385315 -23.89746l0 -47.79541" fill-rule="evenodd"/><path fill="#000000" d="m1049.5024 2289.6853l0 -30.484375l6.453125 0l0 2.421875l-3.53125 0l0 25.640625l3.53125 0l0 2.421875l-6.453125 0zm9.197144 0l0 -23.90625l2.65625 0l0 2.25q0.953125 -1.328125 2.140625 -1.984375q1.1875 -0.65625 2.875 -0.65625q2.21875 0 3.90625 1.140625q1.6875 1.140625 2.546875 3.21875q0.875 2.0625 0.875 4.546875q0 2.640625 -0.953125 4.765625q-0.953125 2.125 -2.765625 3.265625q-1.8125 1.125 -3.8125 1.125q-1.46875 0 -2.640625 -0.609375q-1.15625 -0.625 -1.90625 -1.578125l0 8.421875l-2.921875 0zm2.640625 -15.171875q0 3.34375 1.34375 4.9375q1.359375 1.59375 3.28125 1.59375q1.953125 0 3.34375 -1.65625q1.390625 -1.65625 1.390625 -5.109375q0 -3.3125 -1.359375 -4.953125q-1.359375 -1.640625 -3.25 -1.640625q-1.859375 0 -3.3125 1.75q-1.4375 1.75 -1.4375 5.078125zm27.160522 2.21875l2.890625 0.375q-0.46875 2.96875 -2.421875 4.65625q-1.9375 1.6875 -4.78125 1.6875q-3.546875 0 -5.703125 -2.3125q-2.15625 -2.328125 -2.15625 -6.65625q0 -2.796875 0.921875 -4.890625q0.9375 -2.109375 2.828125 -3.15625q1.90625 -1.046875 4.125 -1.046875q2.828125 0 4.609375 1.421875q1.796875 1.421875 2.296875 4.046875l-2.84375 0.4375q-0.40625 -1.734375 -1.453125 -2.609375q-1.03125 -0.890625 -2.484375 -0.890625q-2.21875 0 -3.609375 1.59375q-1.375 1.578125 -1.375 5.015625q0 3.484375 1.328125 5.0625q1.34375 1.578125 3.484375 1.578125q1.734375 0 2.890625 -1.0625q1.15625 -1.0625 1.453125 -3.25zm16.664062 4.203125q-1.625 1.375 -3.125 1.953125q-1.5 0.5625 -3.234375 0.5625q-2.84375 0 -4.375 -1.390625q-1.53125 -1.390625 -1.53125 -3.5625q0 -1.265625 0.578125 -2.3125q0.578125 -1.046875 1.515625 -1.671875q0.9375 -0.640625 2.109375 -0.96875q0.859375 -0.234375 2.59375 -0.4375q3.546875 -0.421875 5.234375 -1.015625q0.015625 -0.609375 0.015625 -0.765625q0 -1.78125 -0.828125 -2.515625q-1.125 -1.0 -3.34375 -1.0q-2.0625 0 -3.046875 0.734375q-0.984375 0.71875 -1.453125 2.546875l-2.875 -0.390625q0.390625 -1.828125 1.28125 -2.953125q0.90625 -1.140625 2.59375 -1.75q1.703125 -0.609375 3.921875 -0.609375q2.21875 0 3.59375 0.53125q1.390625 0.515625 2.03125 1.3125q0.65625 0.78125 0.921875 1.984375q0.140625 0.75 0.140625 2.703125l0 3.90625q0 4.078125 0.1875 5.15625q0.1875 1.078125 0.75 2.078125l-3.0625 0q-0.453125 -0.90625 -0.59375 -2.125zm-0.234375 -6.546875q-1.59375 0.65625 -4.78125 1.109375q-1.8125 0.25 -2.5625 0.578125q-0.75 0.328125 -1.15625 0.953125q-0.40625 0.625 -0.40625 1.390625q0 1.171875 0.890625 1.953125q0.890625 0.78125 2.59375 0.78125q1.6875 0 3.0 -0.734375q1.328125 -0.75 1.953125 -2.03125q0.46875 -0.984375 0.46875 -2.921875l0 -1.078125zm12.394897 15.296875l-6.453125 0l0 -2.421875l3.53125 0l0 -25.640625l-3.53125 0l0 -2.421875l6.453125 0l0 30.484375z" fill-rule="nonzero"/><path fill="#a4c2f4" d="m1104.3536 2173.601l0 39.637695l20.984863 0l-41.969727 39.63794l-41.96985 -39.63794l20.984863 0l0 -39.637695z" fill-rule="evenodd"/><path stroke="#595959" stroke-width="1.0" stroke-linejoin="round" stroke-linecap="butt" d="m1104.3536 2173.601l0 39.637695l20.984863 0l-41.969727 39.63794l-41.96985 -39.63794l20.984863 0l0 -39.637695z" fill-rule="evenodd"/><path fill="#eeeeee" d="m974.9787 2135.0l0 0c0 13.198242 48.525757 23.897705 108.385315 23.897705c59.859497 0 108.385254 -10.699463 108.385254 -23.897705l0 47.795166c0 13.198486 -48.525757 23.897705 -108.385254 23.897705c-59.85956 0 -108.385315 -10.699219 -108.385315 -23.897705z" fill-rule="evenodd"/><path fill="#f4f4f4" d="m974.9787 2135.0l0 0c0 -13.198242 48.525757 -23.897705 108.385315 -23.897705c59.859497 0 108.385254 10.699463 108.385254 23.897705l0 0c0 13.198242 -48.525757 23.897705 -108.385254 23.897705c-59.85956 0 -108.385315 -10.699463 -108.385315 -23.897705z" fill-rule="evenodd"/><path fill="#000000" fill-opacity="0.0" d="m1191.7493 2135.0l0 0c0 13.198242 -48.525757 23.897705 -108.385254 23.897705c-59.85956 0 -108.385315 -10.699463 -108.385315 -23.897705l0 0c0 -13.198242 48.525757 -23.897705 108.385315 -23.897705c59.859497 0 108.385254 10.699463 108.385254 23.897705l0 47.795166c0 13.198486 -48.525757 23.897705 -108.385254 23.897705c-59.85956 0 -108.385315 -10.699219 -108.385315 -23.897705l0 -47.795166" fill-rule="evenodd"/><path stroke="#595959" stroke-width="1.0" stroke-linejoin="round" stroke-linecap="butt" d="m1191.7493 2135.0l0 0c0 13.198242 -48.525757 23.897705 -108.385254 23.897705c-59.85956 0 -108.385315 -10.699463 -108.385315 -23.897705l0 0c0 -13.198242 48.525757 -23.897705 108.385315 -23.897705c59.859497 0 108.385254 10.699463 108.385254 23.897705l0 47.795166c0 13.198486 -48.525757 23.897705 -108.385254 23.897705c-59.85956 0 -108.385315 -10.699219 -108.385315 -23.897705l0 -47.795166" fill-rule="evenodd"/><path fill="#000000" d="m1021.69916 2184.9714l0 -30.484375l6.453064 0l0 2.421875l-3.53125 0l0 25.640625l3.53125 0l0 2.421875l-6.453064 0zm21.025208 -12.1875l3.015625 0.375q-0.703125 2.65625 -2.640625 4.125q-1.9375 1.453125 -4.953125 1.453125q-3.796875 0 -6.015625 -2.328125q-2.21875 -2.34375 -2.21875 -6.5625q0 -4.359375 2.25 -6.765625q2.25 -2.40625 5.828125 -2.40625q3.46875 0 5.65625 2.359375q2.203125 2.359375 2.203125 6.640625q0 0.265625 -0.015625 0.78125l-12.890625 0q0.15625 2.84375 1.609375 4.359375q1.453125 1.515625 3.609375 1.515625q1.609375 0 2.75 -0.84375q1.140625 -0.84375 1.8125 -2.703125zm-9.625 -4.734375l9.65625 0q-0.203125 -2.1875 -1.109375 -3.28125q-1.40625 -1.6875 -3.625 -1.6875q-2.015625 0 -3.390625 1.359375q-1.375 1.34375 -1.53125 3.609375zm16.332397 10.296875l0 -17.28125l2.625 0l0 2.453125q1.90625 -2.84375 5.5 -2.84375q1.5625 0 2.875 0.5625q1.3125 0.5625 1.953125 1.46875q0.65625 0.90625 0.921875 2.171875q0.15625 0.8125 0.15625 2.84375l0 10.625l-2.921875 0l0 -10.515625q0 -1.78125 -0.34375 -2.671875q-0.34375 -0.890625 -1.21875 -1.421875q-0.859375 -0.53125 -2.03125 -0.53125q-1.875 0 -3.234375 1.1875q-1.359375 1.1875 -1.359375 4.515625l0 9.4375l-2.921875 0zm29.801147 -6.328125l2.890625 0.375q-0.46875 2.96875 -2.421875 4.65625q-1.9375 1.6875 -4.78125 1.6875q-3.546875 0 -5.703125 -2.3125q-2.15625 -2.328125 -2.15625 -6.65625q0 -2.796875 0.921875 -4.890625q0.9375 -2.109375 2.828125 -3.15625q1.90625 -1.046875 4.125 -1.046875q2.828125 0 4.609375 1.421875q1.796875 1.421875 2.296875 4.046875l-2.84375 0.4375q-0.40625 -1.734375 -1.453125 -2.609375q-1.03125 -0.890625 -2.484375 -0.890625q-2.21875 0 -3.609375 1.59375q-1.375 1.578125 -1.375 5.015625q0 3.484375 1.328125 5.0625q1.34375 1.578125 3.484375 1.578125q1.734375 0 2.890625 -1.0625q1.15625 -1.0625 1.453125 -3.25zm4.3046875 -2.3125q0 -4.796875 2.671875 -7.109375q2.21875 -1.921875 5.421875 -1.921875q3.578125 0 5.828125 2.34375q2.265625 2.328125 2.265625 6.4375q0 3.34375 -1.0 5.265625q-1.0 1.90625 -2.921875 2.96875q-1.90625 1.046875 -4.171875 1.046875q-3.625 0 -5.859375 -2.328125q-2.234375 -2.328125 -2.234375 -6.703125zm3.015625 0q0 3.3125 1.4375 4.96875q1.453125 1.65625 3.640625 1.65625q2.1875 0 3.625 -1.65625q1.453125 -1.671875 1.453125 -5.0625q0 -3.203125 -1.453125 -4.859375q-1.453125 -1.65625 -3.625 -1.65625q-2.1875 0 -3.640625 1.640625q-1.4375 1.640625 -1.4375 4.96875zm27.816772 8.640625l0 -2.1875q-1.640625 2.578125 -4.828125 2.578125q-2.0625 0 -3.796875 -1.140625q-1.734375 -1.140625 -2.6875 -3.171875q-0.953125 -2.046875 -0.953125 -4.703125q0 -2.59375 0.859375 -4.6875q0.859375 -2.109375 2.578125 -3.234375q1.734375 -1.125 3.875 -1.125q1.5625 0 2.78125 0.65625q1.21875 0.65625 1.984375 1.71875l0 -8.5625l2.90625 0l0 23.859375l-2.71875 0zm-9.25 -8.625q0 3.3125 1.390625 4.96875q1.40625 1.640625 3.3125 1.640625q1.90625 0 3.25 -1.5625q1.34375 -1.578125 1.34375 -4.796875q0 -3.546875 -1.375 -5.203125q-1.359375 -1.671875 -3.359375 -1.671875q-1.953125 0 -3.265625 1.59375q-1.296875 1.59375 -1.296875 5.03125zm28.410522 3.0625l3.015625 0.375q-0.703125 2.65625 -2.640625 4.125q-1.9375 1.453125 -4.953125 1.453125q-3.796875 0 -6.015625 -2.328125q-2.21875 -2.34375 -2.21875 -6.5625q0 -4.359375 2.25 -6.765625q2.25 -2.40625 5.828125 -2.40625q3.46875 0 5.65625 2.359375q2.203125 2.359375 2.203125 6.640625q0 0.265625 -0.015625 0.78125l-12.890625 0q0.15625 2.84375 1.609375 4.359375q1.453125 1.515625 3.609375 1.515625q1.609375 0 2.75 -0.84375q1.140625 -0.84375 1.8125 -2.703125zm-9.625 -4.734375l9.65625 0q-0.203125 -2.1875 -1.109375 -3.28125q-1.40625 -1.6875 -3.625 -1.6875q-2.015625 0 -3.390625 1.359375q-1.375 1.34375 -1.53125 3.609375zm21.223022 16.921875l-6.453125 0l0 -2.421875l3.53125 0l0 -25.640625l-3.53125 0l0 -2.421875l6.453125 0l0 30.484375z" fill-rule="nonzero"/><path fill="#a4c2f4" d="m1104.3536 2068.8872l0 39.637695l20.984863 0l-41.969727 39.63794l-41.96985 -39.63794l20.984863 0l0 -39.637695z" fill-rule="evenodd"/><path stroke="#595959" stroke-width="1.0" stroke-linejoin="round" stroke-linecap="butt" d="m1104.3536 2068.8872l0 39.637695l20.984863 0l-41.969727 39.63794l-41.96985 -39.63794l20.984863 0l0 -39.637695z" fill-rule="evenodd"/><g filter="url(#shadowFilter-g25be2c141bf_0_49.1)"><use xlink:href="#g25be2c141bf_0_49.1" transform="matrix(1.0 0.0 0.0 1.0 0.0 2.0)"/></g><defs><filter id="shadowFilter-g25be2c141bf_0_49.1" filterUnits="userSpaceOnUse"><feGaussianBlur in="SourceAlpha" stdDeviation="2.0" result="blur"/><feComponentTransfer in="blur" color-interpolation-filters="sRGB"><feFuncR type="linear" slope="0" intercept="0.0"/><feFuncG type="linear" slope="0" intercept="0.0"/><feFuncB type="linear" slope="0" intercept="0.0"/><feFuncA type="linear" slope="0.5" intercept="0"/></feComponentTransfer></filter></defs><g id="g25be2c141bf_0_49.1"><path fill="#6d9eeb" d="m1175.6654 1869.79l-184.60278 0l0 173.29663l184.60278 0z" fill-rule="evenodd"/><path fill="#000000" fill-opacity="0.0" d="m1152.59 1869.79l0 173.29663m23.07544 -151.63452l-184.60278 0" fill-rule="evenodd"/><path fill="#000000" fill-opacity="0.0" d="m1175.6654 1869.79l-184.60278 0l0 173.29663l184.60278 0z" fill-rule="evenodd"/><path stroke="#595959" stroke-width="3.0" stroke-linejoin="round" stroke-linecap="butt" d="m1152.59 1869.79l0 173.29663m23.07544 -151.63452l-184.60278 0" fill-rule="evenodd"/><path stroke="#595959" stroke-width="3.0" stroke-linejoin="round" stroke-linecap="butt" d="m1175.6654 1869.79l-184.60278 0l0 173.29663l184.60278 0z" fill-rule="evenodd"/></g><path fill="#000000" fill-opacity="0.0" d="m991.0508 1891.3806l184.59326 0l0 103.527466l-184.59326 0z" fill-rule="evenodd"/><path fill="#000000" d="m1052.9045 1973.1082l0 -3.484375q-2.625 4.109375 -7.734375 4.109375q-3.296875 0 -6.078125 -1.8125q-2.765625 -1.828125 -4.296875 -5.09375q-1.515625 -3.28125 -1.515625 -7.515625q0 -4.140625 1.375 -7.515625q1.375 -3.375 4.140625 -5.171875q2.765625 -1.796875 6.171875 -1.796875q2.5 0 4.453125 1.0625q1.953125 1.046875 3.171875 2.734375l0 -13.6875l4.671875 0l0 38.171875l-4.359375 0zm-14.8125 -13.796875q0 5.3125 2.234375 7.9375q2.25 2.625 5.296875 2.625q3.0625 0 5.203125 -2.5q2.15625 -2.515625 2.15625 -7.671875q0 -5.6875 -2.1875 -8.34375q-2.1875 -2.65625 -5.390625 -2.65625q-3.125 0 -5.21875 2.5625q-2.09375 2.546875 -2.09375 8.046875zm44.580444 10.390625q-2.609375 2.203125 -5.015625 3.125q-2.40625 0.90625 -5.171875 0.90625q-4.546875 0 -7.0 -2.21875q-2.453125 -2.234375 -2.453125 -5.703125q0 -2.03125 0.921875 -3.703125q0.9375 -1.6875 2.421875 -2.703125q1.5 -1.015625 3.375 -1.53125q1.390625 -0.359375 4.171875 -0.703125q5.671875 -0.671875 8.359375 -1.609375q0.03125 -0.96875 0.03125 -1.234375q0 -2.859375 -1.328125 -4.03125q-1.796875 -1.59375 -5.34375 -1.59375q-3.3125 0 -4.890625 1.171875q-1.5625 1.15625 -2.328125 4.09375l-4.578125 -0.625q0.625 -2.9375 2.046875 -4.75q1.4375 -1.8125 4.140625 -2.78125q2.71875 -0.984375 6.28125 -0.984375q3.546875 0 5.75 0.84375q2.21875 0.828125 3.265625 2.09375q1.046875 1.25 1.453125 3.1875q0.234375 1.1875 0.234375 4.3125l0 6.25q0 6.546875 0.296875 8.28125q0.3125 1.71875 1.1875 3.3125l-4.890625 0q-0.734375 -1.453125 -0.9375 -3.40625zm-0.390625 -10.46875q-2.546875 1.03125 -7.65625 1.765625q-2.890625 0.421875 -4.09375 0.9375q-1.1875 0.515625 -1.84375 1.53125q-0.65625 1.0 -0.65625 2.21875q0 1.875 1.421875 3.125q1.421875 1.25 4.15625 1.25q2.703125 0 4.8125 -1.1875q2.109375 -1.1875 3.109375 -3.234375q0.75 -1.59375 0.75 -4.6875l0 -1.71875zm22.236694 9.6875l0.671875 4.140625q-1.96875 0.40625 -3.53125 0.40625q-2.5625 0 -3.96875 -0.796875q-1.40625 -0.8125 -1.984375 -2.125q-0.5625 -1.3125 -0.5625 -5.53125l0 -15.921875l-3.4375 0l0 -3.640625l3.4375 0l0 -6.84375l4.65625 -2.8125l0 9.65625l4.71875 0l0 3.640625l-4.71875 0l0 16.171875q0 2.015625 0.25 2.59375q0.25 0.5625 0.8125 0.90625q0.5625 0.328125 1.59375 0.328125q0.78125 0 2.0625 -0.171875zm22.628784 0.78125q-2.609375 2.203125 -5.015625 3.125q-2.40625 0.90625 -5.171875 0.90625q-4.546875 0 -7.0 -2.21875q-2.453125 -2.234375 -2.453125 -5.703125q0 -2.03125 0.921875 -3.703125q0.9375 -1.6875 2.421875 -2.703125q1.5 -1.015625 3.375 -1.53125q1.390625 -0.359375 4.171875 -0.703125q5.671875 -0.671875 8.359375 -1.609375q0.03125 -0.96875 0.03125 -1.234375q0 -2.859375 -1.328125 -4.03125q-1.796875 -1.59375 -5.34375 -1.59375q-3.3125 0 -4.890625 1.171875q-1.5625 1.15625 -2.328125 4.09375l-4.578125 -0.625q0.625 -2.9375 2.046875 -4.75q1.4375 -1.8125 4.140625 -2.78125q2.71875 -0.984375 6.28125 -0.984375q3.546875 0 5.75 0.84375q2.21875 0.828125 3.265625 2.09375q1.046875 1.25 1.453125 3.1875q0.234375 1.1875 0.234375 4.3125l0 6.25q0 6.546875 0.296875 8.28125q0.3125 1.71875 1.1875 3.3125l-4.890625 0q-0.734375 -1.453125 -0.9375 -3.40625zm-0.390625 -10.46875q-2.546875 1.03125 -7.65625 1.765625q-2.890625 0.421875 -4.09375 0.9375q-1.1875 0.515625 -1.84375 1.53125q-0.65625 1.0 -0.65625 2.21875q0 1.875 1.421875 3.125q1.421875 1.25 4.15625 1.25q2.703125 0 4.8125 -1.1875q2.109375 -1.1875 3.109375 -3.234375q0.75 -1.59375 0.75 -4.6875l0 -1.71875z" fill-rule="nonzero"/><path fill="#f9cb9c" d="m1260.6106 2309.6692l36.131226 0l0 0l54.196777 0l126.45935 0l0 46.24414l0 0l0 19.818848l0 13.2126465l-126.45935 0l-54.196777 0l0 0l-36.131226 0l0 -13.2126465l-82.8844 6.601074l82.8844 -26.419922z" fill-rule="evenodd"/><path stroke="#595959" stroke-width="1.0" stroke-linejoin="round" stroke-linecap="butt" d="m1260.6106 2309.6692l36.131226 0l0 0l54.196777 0l126.45935 0l0 46.24414l0 0l0 19.818848l0 13.2126465l-126.45935 0l-54.196777 0l0 0l-36.131226 0l0 -13.2126465l-82.8844 6.601074l82.8844 -26.419922z" fill-rule="evenodd"/><path fill="#000000" d="m1316.1996 2356.527l0 -22.90625l3.03125 0l0 20.203125l11.28125 0l0 2.703125l-14.3125 0zm28.921875 -5.34375l2.90625 0.359375q-0.6875 2.546875 -2.546875 3.953125q-1.859375 1.40625 -4.75 1.40625q-3.640625 0 -5.78125 -2.234375q-2.125 -2.25 -2.125 -6.296875q0 -4.1875 2.15625 -6.5q2.15625 -2.3125 5.59375 -2.3125q3.328125 0 5.4375 2.265625q2.109375 2.265625 2.109375 6.375q0 0.25 -0.015625 0.75l-12.375 0q0.15625 2.734375 1.546875 4.1875q1.390625 1.453125 3.46875 1.453125q1.546875 0 2.640625 -0.8125q1.09375 -0.8125 1.734375 -2.59375zm-9.234375 -4.546875l9.265625 0q-0.1875 -2.09375 -1.0625 -3.140625q-1.34375 -1.625 -3.484375 -1.625q-1.9375 0 -3.265625 1.296875q-1.3125 1.296875 -1.453125 3.46875zm26.5 7.84375q-1.5625 1.328125 -3.015625 1.875q-1.4375 0.546875 -3.09375 0.546875q-2.734375 0 -4.203125 -1.328125q-1.46875 -1.34375 -1.46875 -3.421875q0 -1.21875 0.546875 -2.21875q0.5625 -1.015625 1.453125 -1.625q0.90625 -0.609375 2.03125 -0.921875q0.828125 -0.21875 2.5 -0.421875q3.40625 -0.40625 5.015625 -0.96875q0.015625 -0.578125 0.015625 -0.734375q0 -1.71875 -0.796875 -2.421875q-1.078125 -0.953125 -3.203125 -0.953125q-1.984375 0 -2.9375 0.703125q-0.9375 0.6875 -1.390625 2.453125l-2.75 -0.375q0.375 -1.765625 1.234375 -2.84375q0.859375 -1.09375 2.484375 -1.671875q1.625 -0.59375 3.765625 -0.59375q2.125 0 3.453125 0.5q1.328125 0.5 1.953125 1.265625q0.625 0.75 0.875 1.90625q0.140625 0.71875 0.140625 2.59375l0 3.75q0 3.921875 0.171875 4.96875q0.1875 1.03125 0.71875 1.984375l-2.9375 0q-0.4375 -0.875 -0.5625 -2.046875zm-0.234375 -6.28125q-1.53125 0.625 -4.59375 1.0625q-1.734375 0.25 -2.453125 0.5625q-0.71875 0.3125 -1.109375 0.921875q-0.390625 0.59375 -0.390625 1.328125q0 1.125 0.84375 1.875q0.859375 0.75 2.5 0.75q1.625 0 2.890625 -0.703125q1.265625 -0.71875 1.859375 -1.953125q0.453125 -0.953125 0.453125 -2.8125l0 -1.03125zm7.171875 8.328125l0 -16.59375l2.53125 0l0 2.515625q0.96875 -1.765625 1.78125 -2.328125q0.828125 -0.5625 1.8125 -0.5625q1.421875 0 2.890625 0.90625l-0.96875 2.609375q-1.03125 -0.609375 -2.0625 -0.609375q-0.921875 0 -1.65625 0.5625q-0.734375 0.546875 -1.046875 1.53125q-0.46875 1.5 -0.46875 3.28125l0 8.6875l-2.8125 0zm10.6875 0l0 -16.59375l2.53125 0l0 2.359375q1.828125 -2.734375 5.28125 -2.734375q1.5 0 2.75 0.546875q1.265625 0.53125 1.890625 1.40625q0.625 0.875 0.875 2.078125q0.15625 0.78125 0.15625 2.734375l0 10.203125l-2.8125 0l0 -10.09375q0 -1.71875 -0.328125 -2.5625q-0.328125 -0.859375 -1.171875 -1.359375q-0.828125 -0.515625 -1.953125 -0.515625q-1.796875 0 -3.109375 1.140625q-1.296875 1.140625 -1.296875 4.328125l0 9.0625l-2.8125 0zm29.15625 -5.34375l2.90625 0.359375q-0.6875 2.546875 -2.546875 3.953125q-1.859375 1.40625 -4.75 1.40625q-3.640625 0 -5.78125 -2.234375q-2.125 -2.25 -2.125 -6.296875q0 -4.1875 2.15625 -6.5q2.15625 -2.3125 5.59375 -2.3125q3.328125 0 5.4375 2.265625q2.109375 2.265625 2.109375 6.375q0 0.25 -0.015625 0.75l-12.375 0q0.15625 2.734375 1.546875 4.1875q1.390625 1.453125 3.46875 1.453125q1.546875 0 2.640625 -0.8125q1.09375 -0.8125 1.734375 -2.59375zm-9.234375 -4.546875l9.265625 0q-0.1875 -2.09375 -1.0625 -3.140625q-1.34375 -1.625 -3.484375 -1.625q-1.9375 0 -3.265625 1.296875q-1.3125 1.296875 -1.453125 3.46875zm15.640625 9.890625l0 -16.59375l2.53125 0l0 2.515625q0.96875 -1.765625 1.78125 -2.328125q0.828125 -0.5625 1.8125 -0.5625q1.421875 0 2.890625 0.90625l-0.96875 2.609375q-1.03125 -0.609375 -2.0625 -0.609375q-0.921875 0 -1.65625 0.5625q-0.734375 0.546875 -1.046875 1.53125q-0.46875 1.5 -0.46875 3.28125l0 8.6875l-2.8125 0z" fill-rule="nonzero"/><path fill="#eeeeee" d="m1260.6106 2189.916l36.131226 0l0 0l54.196777 0l126.45935 0l0 13.2126465l0 0l0 19.818848l0 46.24414l-126.45935 0l-54.196777 0l0 0l-36.131226 0l0 -46.24414l-94.361084 -44.026123l94.361084 24.207275z" fill-rule="evenodd"/><path stroke="#595959" stroke-width="1.0" stroke-linejoin="round" stroke-linecap="butt" d="m1260.6106 2189.916l36.131226 0l0 0l54.196777 0l126.45935 0l0 13.2126465l0 0l0 19.818848l0 46.24414l-126.45935 0l-54.196777 0l0 0l-36.131226 0l0 -46.24414l-94.361084 -44.026123l94.361084 24.207275z" fill-rule="evenodd"/><path fill="#000000" d="m1269.1996 2236.774l0 -22.90625l8.640625 0q2.28125 0 3.484375 0.21875q1.6875 0.28125 2.828125 1.078125q1.140625 0.78125 1.828125 2.203125q0.703125 1.421875 0.703125 3.125q0 2.921875 -1.859375 4.953125q-1.859375 2.015625 -6.71875 2.015625l-5.875 0l0 9.3125l-3.03125 0zm3.03125 -12.015625l5.921875 0q2.9375 0 4.171875 -1.09375q1.234375 -1.09375 1.234375 -3.078125q0 -1.4375 -0.734375 -2.453125q-0.71875 -1.03125 -1.90625 -1.359375q-0.765625 -0.203125 -2.828125 -0.203125l-5.859375 0l0 8.1875zm17.921875 12.015625l0 -16.59375l2.53125 0l0 2.515625q0.96875 -1.765625 1.78125 -2.328125q0.828125 -0.5625 1.8125 -0.5625q1.421875 0 2.890625 0.90625l-0.96875 2.609375q-1.03125 -0.609375 -2.0625 -0.609375q-0.921875 0 -1.65625 0.5625q-0.734375 0.546875 -1.046875 1.53125q-0.46875 1.5 -0.46875 3.28125l0 8.6875l-2.8125 0zm22.046875 -5.34375l2.90625 0.359375q-0.6875 2.546875 -2.546875 3.953125q-1.859375 1.40625 -4.75 1.40625q-3.640625 0 -5.78125 -2.234375q-2.125 -2.25 -2.125 -6.296875q0 -4.1875 2.15625 -6.5q2.15625 -2.3125 5.59375 -2.3125q3.328125 0 5.4375 2.265625q2.109375 2.265625 2.109375 6.375q0 0.25 -0.015625 0.75l-12.375 0q0.15625 2.734375 1.546875 4.1875q1.390625 1.453125 3.46875 1.453125q1.546875 0 2.640625 -0.8125q1.09375 -0.8125 1.734375 -2.59375zm-9.234375 -4.546875l9.265625 0q-0.1875 -2.09375 -1.0625 -3.140625q-1.34375 -1.625 -3.484375 -1.625q-1.9375 0 -3.265625 1.296875q-1.3125 1.296875 -1.453125 3.46875zm15.671875 16.25l0 -22.953125l2.5625 0l0 2.15625q0.90625 -1.265625 2.046875 -1.890625q1.140625 -0.640625 2.765625 -0.640625q2.125 0 3.75 1.09375q1.625 1.09375 2.453125 3.09375q0.828125 1.984375 0.828125 4.359375q0 2.546875 -0.921875 4.59375q-0.90625 2.03125 -2.65625 3.125q-1.734375 1.078125 -3.65625 1.078125q-1.40625 0 -2.53125 -0.59375q-1.109375 -0.59375 -1.828125 -1.5l0 8.078125l-2.8125 0zm2.546875 -14.5625q0 3.203125 1.296875 4.734375q1.296875 1.53125 3.140625 1.53125q1.875 0 3.203125 -1.578125q1.34375 -1.59375 1.34375 -4.921875q0 -3.171875 -1.3125 -4.75q-1.296875 -1.578125 -3.109375 -1.578125q-1.796875 0 -3.1875 1.6875q-1.375 1.671875 -1.375 4.875zm15.21875 8.203125l0 -16.59375l2.53125 0l0 2.515625q0.96875 -1.765625 1.78125 -2.328125q0.828125 -0.5625 1.8125 -0.5625q1.421875 0 2.890625 0.90625l-0.96875 2.609375q-1.03125 -0.609375 -2.0625 -0.609375q-0.921875 0 -1.65625 0.5625q-0.734375 0.546875 -1.046875 1.53125q-0.46875 1.5 -0.46875 3.28125l0 8.6875l-2.8125 0zm9.640625 -8.296875q0 -4.609375 2.5625 -6.828125q2.140625 -1.84375 5.21875 -1.84375q3.421875 0 5.59375 2.25q2.171875 2.234375 2.171875 6.1875q0 3.203125 -0.96875 5.046875q-0.953125 1.828125 -2.796875 2.84375q-1.828125 1.015625 -4.0 1.015625q-3.484375 0 -5.640625 -2.234375q-2.140625 -2.234375 -2.140625 -6.4375zm2.890625 0q0 3.1875 1.390625 4.78125q1.390625 1.578125 3.5 1.578125q2.09375 0 3.484375 -1.59375q1.390625 -1.59375 1.390625 -4.859375q0 -3.078125 -1.40625 -4.65625q-1.390625 -1.59375 -3.46875 -1.59375q-2.109375 0 -3.5 1.578125q-1.390625 1.578125 -1.390625 4.765625zm26.78125 2.21875l2.765625 0.359375q-0.453125 2.859375 -2.328125 4.484375q-1.859375 1.609375 -4.578125 1.609375q-3.40625 0 -5.484375 -2.21875q-2.0625 -2.234375 -2.0625 -6.390625q0 -2.6875 0.890625 -4.703125q0.890625 -2.015625 2.703125 -3.015625q1.828125 -1.015625 3.96875 -1.015625q2.703125 0 4.421875 1.375q1.71875 1.359375 2.203125 3.875l-2.734375 0.421875q-0.390625 -1.671875 -1.390625 -2.515625q-0.984375 -0.84375 -2.390625 -0.84375q-2.125 0 -3.453125 1.53125q-1.328125 1.515625 -1.328125 4.8125q0 3.34375 1.28125 4.859375q1.28125 1.515625 3.34375 1.515625q1.65625 0 2.765625 -1.015625q1.109375 -1.015625 1.40625 -3.125zm16.53125 0.734375l2.90625 0.359375q-0.6875 2.546875 -2.546875 3.953125q-1.859375 1.40625 -4.75 1.40625q-3.640625 0 -5.78125 -2.234375q-2.125 -2.25 -2.125 -6.296875q0 -4.1875 2.15625 -6.5q2.15625 -2.3125 5.59375 -2.3125q3.328125 0 5.4375 2.265625q2.109375 2.265625 2.109375 6.375q0 0.25 -0.015625 0.75l-12.375 0q0.15625 2.734375 1.546875 4.1875q1.390625 1.453125 3.46875 1.453125q1.546875 0 2.640625 -0.8125q1.09375 -0.8125 1.734375 -2.59375zm-9.234375 -4.546875l9.265625 0q-0.1875 -2.09375 -1.0625 -3.140625q-1.34375 -1.625 -3.484375 -1.625q-1.9375 0 -3.265625 1.296875q-1.3125 1.296875 -1.453125 3.46875zm14.546875 4.9375l2.78125 -0.4375q0.234375 1.671875 1.296875 2.5625q1.078125 0.890625 3.0 0.890625q1.9375 0 2.875 -0.78125q0.9375 -0.796875 0.9375 -1.859375q0 -0.953125 -0.828125 -1.5q-0.578125 -0.375 -2.875 -0.953125q-3.09375 -0.78125 -4.296875 -1.34375q-1.1875 -0.578125 -1.8125 -1.578125q-0.609375 -1.015625 -0.609375 -2.234375q0 -1.109375 0.5 -2.046875q0.515625 -0.953125 1.390625 -1.578125q0.65625 -0.484375 1.78125 -0.8125q1.140625 -0.34375 2.4375 -0.34375q1.953125 0 3.421875 0.5625q1.484375 0.5625 2.1875 1.53125q0.703125 0.953125 0.96875 2.5625l-2.75 0.375q-0.1875 -1.28125 -1.09375 -2.0q-0.890625 -0.71875 -2.53125 -0.71875q-1.9375 0 -2.765625 0.640625q-0.828125 0.640625 -0.828125 1.5q0 0.546875 0.34375 0.984375q0.34375 0.453125 1.078125 0.75q0.421875 0.15625 2.484375 0.71875q2.984375 0.796875 4.15625 1.3125q1.1875 0.5 1.859375 1.46875q0.671875 0.96875 0.671875 2.40625q0 1.40625 -0.828125 2.65625q-0.8125 1.234375 -2.359375 1.921875q-1.546875 0.671875 -3.5 0.671875q-3.234375 0 -4.9375 -1.34375q-1.6875 -1.34375 -2.15625 -3.984375zm16.0 0l2.78125 -0.4375q0.234375 1.671875 1.296875 2.5625q1.078125 0.890625 3.0 0.890625q1.9375 0 2.875 -0.78125q0.9375 -0.796875 0.9375 -1.859375q0 -0.953125 -0.828125 -1.5q-0.578125 -0.375 -2.875 -0.953125q-3.09375 -0.78125 -4.296875 -1.34375q-1.1875 -0.578125 -1.8125 -1.578125q-0.609375 -1.015625 -0.609375 -2.234375q0 -1.109375 0.5 -2.046875q0.515625 -0.953125 1.390625 -1.578125q0.65625 -0.484375 1.78125 -0.8125q1.140625 -0.34375 2.4375 -0.34375q1.953125 0 3.421875 0.5625q1.484375 0.5625 2.1875 1.53125q0.703125 0.953125 0.96875 2.5625l-2.75 0.375q-0.1875 -1.28125 -1.09375 -2.0q-0.890625 -0.71875 -2.53125 -0.71875q-1.9375 0 -2.765625 0.640625q-0.828125 0.640625 -0.828125 1.5q0 0.546875 0.34375 0.984375q0.34375 0.453125 1.078125 0.75q0.421875 0.15625 2.484375 0.71875q2.984375 0.796875 4.15625 1.3125q1.1875 0.5 1.859375 1.46875q0.671875 0.96875 0.671875 2.40625q0 1.40625 -0.828125 2.65625q-0.8125 1.234375 -2.359375 1.921875q-1.546875 0.671875 -3.5 0.671875q-3.234375 0 -4.9375 -1.34375q-1.6875 -1.34375 -2.15625 -3.984375zm17.140625 -14.71875l0 -3.234375l2.8125 0l0 3.234375l-2.8125 0zm0 19.671875l0 -16.59375l2.8125 0l0 16.59375l-2.8125 0zm7.09375 0l0 -16.59375l2.53125 0l0 2.359375q1.828125 -2.734375 5.28125 -2.734375q1.5 0 2.75 0.546875q1.265625 0.53125 1.890625 1.40625q0.625 0.875 0.875 2.078125q0.15625 0.78125 0.15625 2.734375l0 10.203125l-2.8125 0l0 -10.09375q0 -1.71875 -0.328125 -2.5625q-0.328125 -0.859375 -1.171875 -1.359375q-0.828125 -0.515625 -1.953125 -0.515625q-1.796875 0 -3.109375 1.140625q-1.296875 1.140625 -1.296875 4.328125l0 9.0625l-2.8125 0zm17.28125 1.375l2.734375 0.40625q0.171875 1.265625 0.953125 1.84375q1.046875 0.78125 2.859375 0.78125q1.953125 0 3.015625 -0.78125q1.0625 -0.78125 1.4375 -2.1875q0.21875 -0.859375 0.203125 -3.609375q-1.84375 2.171875 -4.59375 2.171875q-3.421875 0 -5.296875 -2.46875q-1.875 -2.46875 -1.875 -5.921875q0 -2.375 0.859375 -4.375q0.859375 -2.015625 2.484375 -3.109375q1.640625 -1.09375 3.84375 -1.09375q2.9375 0 4.84375 2.375l0 -2.0l2.59375 0l0 14.34375q0 3.875 -0.796875 5.484375q-0.78125 1.625 -2.5 2.5625q-1.703125 0.9375 -4.203125 0.9375q-2.96875 0 -4.796875 -1.34375q-1.828125 -1.328125 -1.765625 -4.015625zm2.328125 -9.96875q0 3.265625 1.296875 4.765625q1.296875 1.5 3.25 1.5q1.9375 0 3.25 -1.484375q1.3125 -1.5 1.3125 -4.6875q0 -3.046875 -1.359375 -4.59375q-1.34375 -1.546875 -3.25 -1.546875q-1.875 0 -3.1875 1.53125q-1.3125 1.515625 -1.3125 4.515625z" fill-rule="nonzero"/><path fill="#a4c2f4" d="m689.3271 2309.6692l126.45935 0l0 0l54.19684 0l36.131226 0l0 13.2126465l162.9331 -0.2619629l-162.9331 20.08081l0 46.24414l-36.131226 0l-54.19684 0l0 0l-126.45935 0l0 -46.24414l0 -19.818848l0 0z" fill-rule="evenodd"/><path stroke="#595959" stroke-width="1.0" stroke-linejoin="round" stroke-linecap="butt" d="m689.3271 2309.6692l126.45935 0l0 0l54.19684 0l36.131226 0l0 13.2126465l162.9331 -0.2619629l-162.9331 20.08081l0 46.24414l-36.131226 0l-54.19684 0l0 0l-126.45935 0l0 -46.24414l0 -19.818848l0 0z" fill-rule="evenodd"/><path fill="#000000" d="m726.0098 2346.7488l0 -22.953125l2.5625 0l0 2.15625q0.90625 -1.265625 2.046875 -1.890625q1.140625 -0.640625 2.765625 -0.640625q2.125 0 3.75 1.09375q1.625 1.09375 2.453125 3.09375q0.828125 1.984375 0.828125 4.359375q0 2.546875 -0.921875 4.59375q-0.90625 2.03125 -2.65625 3.125q-1.734375 1.078125 -3.65625 1.078125q-1.40625 0 -2.53125 -0.59375q-1.109375 -0.59375 -1.828125 -1.5l0 8.078125l-2.8125 0zm2.546875 -14.5625q0 3.203125 1.296875 4.734375q1.296875 1.53125 3.140625 1.53125q1.875 0 3.203125 -1.578125q1.34375 -1.59375 1.34375 -4.921875q0 -3.171875 -1.3125 -4.75q-1.296875 -1.578125 -3.109375 -1.578125q-1.796875 0 -3.1875 1.6875q-1.375 1.671875 -1.375 4.875zm15.21875 8.203125l0 -16.59375l2.53125 0l0 2.515625q0.96875 -1.765625 1.78125 -2.328125q0.828125 -0.5625 1.8125 -0.5625q1.421875 0 2.890625 0.90625l-0.96875 2.609375q-1.03125 -0.609375 -2.0625 -0.609375q-0.921875 0 -1.65625 0.5625q-0.734375 0.546875 -1.046875 1.53125q-0.46875 1.5 -0.46875 3.28125l0 8.6875l-2.8125 0zm9.640625 -8.296875q0 -4.609375 2.5625 -6.828125q2.140625 -1.84375 5.21875 -1.84375q3.421875 0 5.59375 2.25q2.171875 2.234375 2.171875 6.1875q0 3.203125 -0.96875 5.046875q-0.953125 1.828125 -2.796875 2.84375q-1.828125 1.015625 -4.0 1.015625q-3.484375 0 -5.640625 -2.234375q-2.140625 -2.234375 -2.140625 -6.4375zm2.890625 0q0 3.1875 1.390625 4.78125q1.390625 1.578125 3.5 1.578125q2.09375 0 3.484375 -1.59375q1.390625 -1.59375 1.390625 -4.859375q0 -3.078125 -1.40625 -4.65625q-1.390625 -1.59375 -3.46875 -1.59375q-2.109375 0 -3.5 1.578125q-1.390625 1.578125 -1.390625 4.765625zm26.78125 2.21875l2.765625 0.359375q-0.453125 2.859375 -2.328125 4.484375q-1.859375 1.609375 -4.578125 1.609375q-3.40625 0 -5.484375 -2.21875q-2.0625 -2.234375 -2.0625 -6.390625q0 -2.6875 0.890625 -4.703125q0.890625 -2.015625 2.703125 -3.015625q1.828125 -1.015625 3.96875 -1.015625q2.703125 0 4.421875 1.375q1.71875 1.359375 2.203125 3.875l-2.734375 0.421875q-0.390625 -1.671875 -1.390625 -2.515625q-0.984375 -0.84375 -2.390625 -0.84375q-2.125 0 -3.453125 1.53125q-1.328125 1.515625 -1.328125 4.8125q0 3.34375 1.28125 4.859375q1.28125 1.515625 3.34375 1.515625q1.65625 0 2.765625 -1.015625q1.109375 -1.015625 1.40625 -3.125zm16.53125 0.734375l2.90625 0.359375q-0.6875 2.546875 -2.546875 3.953125q-1.859375 1.40625 -4.75 1.40625q-3.640625 0 -5.78125 -2.234375q-2.125 -2.25 -2.125 -6.296875q0 -4.1875 2.15625 -6.5q2.15625 -2.3125 5.59375 -2.3125q3.328125 0 5.4375 2.265625q2.109375 2.265625 2.109375 6.375q0 0.25 -0.015625 0.75l-12.375 0q0.15625 2.734375 1.546875 4.1875q1.390625 1.453125 3.46875 1.453125q1.546875 0 2.640625 -0.8125q1.09375 -0.8125 1.734375 -2.59375zm-9.234375 -4.546875l9.265625 0q-0.1875 -2.09375 -1.0625 -3.140625q-1.34375 -1.625 -3.484375 -1.625q-1.9375 0 -3.265625 1.296875q-1.3125 1.296875 -1.453125 3.46875zm14.546875 4.9375l2.78125 -0.4375q0.234375 1.671875 1.296875 2.5625q1.078125 0.890625 3.0 0.890625q1.9375 0 2.875 -0.78125q0.9375 -0.796875 0.9375 -1.859375q0 -0.953125 -0.828125 -1.5q-0.578125 -0.375 -2.875 -0.953125q-3.09375 -0.78125 -4.296875 -1.34375q-1.1875 -0.578125 -1.8125 -1.578125q-0.609375 -1.015625 -0.609375 -2.234375q0 -1.109375 0.5 -2.046875q0.515625 -0.953125 1.390625 -1.578125q0.65625 -0.484375 1.78125 -0.8125q1.140625 -0.34375 2.4375 -0.34375q1.953125 0 3.421875 0.5625q1.484375 0.5625 2.1875 1.53125q0.70318604 0.953125 0.96881104 2.5625l-2.750061 0.375q-0.1875 -1.28125 -1.09375 -2.0q-0.890625 -0.71875 -2.53125 -0.71875q-1.9375 0 -2.765625 0.640625q-0.828125 0.640625 -0.828125 1.5q0 0.546875 0.34375 0.984375q0.34375 0.453125 1.078125 0.75q0.421875 0.15625 2.484375 0.71875q2.984375 0.796875 4.15625 1.3125q1.187561 0.5 1.859436 1.46875q0.671875 0.96875 0.671875 2.40625q0 1.40625 -0.828125 2.65625q-0.81256104 1.234375 -2.359436 1.921875q-1.546875 0.671875 -3.5 0.671875q-3.234375 0 -4.9375 -1.34375q-1.6875 -1.34375 -2.15625 -3.984375zm16.000061 0l2.78125 -0.4375q0.234375 1.671875 1.296875 2.5625q1.078125 0.890625 3.0 0.890625q1.9375 0 2.875 -0.78125q0.9375 -0.796875 0.9375 -1.859375q0 -0.953125 -0.828125 -1.5q-0.578125 -0.375 -2.875 -0.953125q-3.09375 -0.78125 -4.296875 -1.34375q-1.1875 -0.578125 -1.8125 -1.578125q-0.609375 -1.015625 -0.609375 -2.234375q0 -1.109375 0.5 -2.046875q0.515625 -0.953125 1.390625 -1.578125q0.65625 -0.484375 1.78125 -0.8125q1.140625 -0.34375 2.4375 -0.34375q1.953125 0 3.421875 0.5625q1.484375 0.5625 2.1875 1.53125q0.703125 0.953125 0.96875 2.5625l-2.75 0.375q-0.1875 -1.28125 -1.09375 -2.0q-0.890625 -0.71875 -2.53125 -0.71875q-1.9375 0 -2.765625 0.640625q-0.828125 0.640625 -0.828125 1.5q0 0.546875 0.34375 0.984375q0.34375 0.453125 1.078125 0.75q0.421875 0.15625 2.484375 0.71875q2.984375 0.796875 4.15625 1.3125q1.1875 0.5 1.859375 1.46875q0.671875 0.96875 0.671875 2.40625q0 1.40625 -0.828125 2.65625q-0.8125 1.234375 -2.359375 1.921875q-1.546875 0.671875 -3.5 0.671875q-3.234375 0 -4.9375 -1.34375q-1.6875 -1.34375 -2.15625 -3.984375zm28.484375 -0.390625l2.90625 0.359375q-0.6875 2.546875 -2.546875 3.953125q-1.859375 1.40625 -4.75 1.40625q-3.640625 0 -5.78125 -2.234375q-2.125 -2.25 -2.125 -6.296875q0 -4.1875 2.15625 -6.5q2.15625 -2.3125 5.59375 -2.3125q3.328125 0 5.4375 2.265625q2.109375 2.265625 2.109375 6.375q0 0.25 -0.015625 0.75l-12.375 0q0.15625 2.734375 1.546875 4.1875q1.390625 1.453125 3.46875 1.453125q1.546875 0 2.640625 -0.8125q1.09375 -0.8125 1.734375 -2.59375zm-9.234375 -4.546875l9.265625 0q-0.1875 -2.09375 -1.0625 -3.140625q-1.34375 -1.625 -3.484375 -1.625q-1.9375 0 -3.265625 1.296875q-1.3125 1.296875 -1.453125 3.46875zm26.4375 9.890625l0 -2.09375q-1.578125 2.46875 -4.640625 2.46875q-1.984375 0 -3.65625 -1.09375q-1.65625 -1.09375 -2.578125 -3.046875q-0.90625 -1.96875 -0.90625 -4.515625q0 -2.484375 0.828125 -4.5q0.828125 -2.03125 2.484375 -3.109375q1.65625 -1.078125 3.703125 -1.078125q1.5 0 2.671875 0.640625q1.171875 0.625 1.90625 1.640625l0 -8.21875l2.796875 0l0 22.90625l-2.609375 0zm-8.890625 -8.28125q0 3.1875 1.34375 4.765625q1.34375 1.578125 3.171875 1.578125q1.84375 0 3.125 -1.5q1.296875 -1.515625 1.296875 -4.609375q0 -3.40625 -1.3125 -5.0q-1.3125 -1.59375 -3.234375 -1.59375q-1.875 0 -3.140625 1.53125q-1.25 1.53125 -1.25 4.828125z" fill-rule="nonzero"/><path fill="#000000" d="m766.39264 2378.3894l0 -22.90625l7.890625 0q2.671875 0 4.078125 0.328125q1.96875 0.453125 3.359375 1.640625q1.8125 1.53125 2.703125 3.921875q0.90625 2.375 0.90625 5.4375q0 2.609375 -0.609375 4.625q-0.609375 2.015625 -1.5625 3.34375q-0.953125 1.3125 -2.09375 2.078125q-1.125 0.75 -2.734375 1.140625q-1.59375 0.390625 -3.671875 0.390625l-8.265625 0zm3.03125 -2.703125l4.890625 0q2.265625 0 3.546875 -0.421875q1.296875 -0.421875 2.0625 -1.1875q1.078125 -1.078125 1.671875 -2.890625q0.609375 -1.828125 0.609375 -4.421875q0 -3.59375 -1.1875 -5.515625q-1.171875 -1.9375 -2.859375 -2.59375q-1.21875 -0.46875 -3.921875 -0.46875l-4.8125 0l0 17.5zm30.546875 0.65625q-1.5625 1.328125 -3.015625 1.875q-1.4375 0.546875 -3.09375 0.546875q-2.734375 0 -4.203125 -1.328125q-1.46875 -1.34375 -1.46875 -3.421875q0 -1.21875 0.546875 -2.21875q0.5625 -1.015625 1.453125 -1.625q0.90625 -0.609375 2.03125 -0.921875q0.828125 -0.21875 2.5 -0.421875q3.40625 -0.40625 5.015625 -0.96875q0.015625 -0.578125 0.015625 -0.734375q0 -1.71875 -0.796875 -2.421875q-1.078125 -0.953125 -3.203125 -0.953125q-1.984375 0 -2.9375 0.703125q-0.9375 0.6875 -1.390625 2.453125l-2.75 -0.375q0.375 -1.765625 1.234375 -2.84375q0.859375 -1.09375 2.484375 -1.671875q1.625 -0.59375 3.765625 -0.59375q2.125 0 3.453125 0.5q1.328125 0.5 1.953125 1.265625q0.625 0.75 0.875 1.90625q0.140625 0.71875 0.140625 2.59375l0 3.75q0 3.921875 0.171875 4.96875q0.1875 1.03125 0.71875 1.984375l-2.9375 0q-0.4375 -0.875 -0.5625 -2.046875zm-0.234375 -6.28125q-1.53125 0.625 -4.59375 1.0625q-1.734375 0.25 -2.453125 0.5625q-0.71875 0.3125 -1.109375 0.921875q-0.390625 0.59375 -0.390625 1.328125q0 1.125 0.84375 1.875q0.859375 0.75 2.5 0.75q1.625 0 2.890625 -0.703125q1.265625 -0.71875 1.859375 -1.953125q0.453125 -0.953125 0.453125 -2.8125l0 -1.03125zm13.34375 5.8125l0.40625 2.484375q-1.1875 0.25 -2.125 0.25q-1.53125 0 -2.375 -0.484375q-0.84375 -0.484375 -1.1875 -1.265625q-0.34375 -0.796875 -0.34375 -3.328125l0 -9.546875l-2.0625 0l0 -2.1875l2.0625 0l0 -4.109375l2.796875 -1.6875l0 5.796875l2.828125 0l0 2.1875l-2.828125 0l0 9.703125q0 1.203125 0.140625 1.546875q0.15625 0.34375 0.484375 0.546875q0.34375 0.203125 0.96875 0.203125q0.46875 0 1.234375 -0.109375zm13.578186 0.46875q-1.5625 1.328125 -3.015625 1.875q-1.4375 0.546875 -3.09375 0.546875q-2.734375 0 -4.203186 -1.328125q-1.46875 -1.34375 -1.46875 -3.421875q0 -1.21875 0.546875 -2.21875q0.5625 -1.015625 1.453125 -1.625q0.90631104 -0.609375 2.031311 -0.921875q0.828125 -0.21875 2.5 -0.421875q3.40625 -0.40625 5.015625 -0.96875q0.015625 -0.578125 0.015625 -0.734375q0 -1.71875 -0.796875 -2.421875q-1.078125 -0.953125 -3.203125 -0.953125q-1.984375 0 -2.9375 0.703125q-0.9375 0.6875 -1.390625 2.453125l-2.750061 -0.375q0.375 -1.765625 1.234375 -2.84375q0.85943604 -1.09375 2.484436 -1.671875q1.625 -0.59375 3.765625 -0.59375q2.125 0 3.453125 0.5q1.328125 0.5 1.953125 1.265625q0.625 0.75 0.875 1.90625q0.140625 0.71875 0.140625 2.59375l0 3.75q0 3.921875 0.171875 4.96875q0.1875 1.03125 0.71875 1.984375l-2.9375 0q-0.4375 -0.875 -0.5625 -2.046875zm-0.234375 -6.28125q-1.53125 0.625 -4.59375 1.0625q-1.734375 0.25 -2.453125 0.5625q-0.71875 0.3125 -1.109375 0.921875q-0.390625 0.59375 -0.390625 1.328125q0 1.125 0.84375 1.875q0.859375 0.75 2.5 0.75q1.625 0 2.890625 -0.703125q1.265625 -0.71875 1.859375 -1.953125q0.453125 -0.953125 0.453125 -2.8125l0 -1.03125z" fill-rule="nonzero"/></g></svg>